<svg version="1.2" baseProfile="tiny"
	 xmlns="http://www.w3.org/2000/svg" xmlns:xlink="http://www.w3.org/1999/xlink" xmlns:a="http://ns.adobe.com/AdobeSVGViewerExtensions/3.0/"
	 x="0px" y="0px" width="1000px" height="1000px" viewBox="0 0 1000 1000" overflow="visible" xml:space="preserve">
<defs>
</defs>
<rect display="none" fill="#976DD0" width="1000" height="1000"/>
<circle fill="#FFFFFF" cx="517.292" cy="814.678" r="10.189"/>
<circle fill="#FFFFFF" cx="559.265" cy="814.975" r="10.189"/>
<path fill="#FFFFFF" d="M636.421,720.865l-42.847,33.877l23.779,1.486l-20.408,18.26c-10.973-21.83-31.742-33.922-57.91-33.922
	c-36.911,0-66.834,29.701-66.834,66.613c0,36.916,29.923,66.729,66.834,66.729c36.913,0,66.835-29.562,66.835-66.477
	c0-5.262-1.477-11.041-2.624-16.5l43.084-44.115l-21.01-1.031L636.421,720.865z M593.392,832.529h-108.71
	c-3.712-7.275-5.798-16.498-5.798-25.729c0-2.395,0.157-3.377,0.428-7.016h119.446c0.272,3.637,0.427,4.621,0.427,7.016
	C599.187,816.029,597.104,825.254,593.392,832.529z"/>
<circle fill="#FFFFFF" cx="322.531" cy="130.362" r="10.189"/>
<circle fill="#FFFFFF" cx="364.504" cy="130.66" r="10.189"/>
<path fill="#FFFFFF" d="M441.659,36.552l-42.847,33.875l23.779,1.487l-20.409,18.26c-10.971-21.83-31.741-33.922-57.909-33.922
	c-36.912,0-66.834,29.702-66.834,66.614c0,36.916,29.923,66.728,66.834,66.728c36.912,0,66.835-29.562,66.835-66.477
	c0-5.261-1.478-11.041-2.625-16.499l43.083-44.116l-21.008-1.03L441.659,36.552z M398.629,148.216H289.92
	c-3.713-7.277-5.798-16.5-5.798-25.729c0-2.394,0.157-3.376,0.428-7.016h119.446c0.272,3.638,0.428,4.623,0.428,7.016
	C404.425,131.715,402.342,140.939,398.629,148.216z"/>
<circle fill="#FFFFFF" cx="490.196" cy="107.275" r="10.189"/>
<circle fill="#FFFFFF" cx="532.17" cy="107.572" r="10.189"/>
<path fill="#FFFFFF" d="M609.324,13.463L566.478,47.34l23.779,1.486l-20.408,18.261c-10.971-21.83-31.741-33.923-57.909-33.923
	c-36.912,0-66.835,29.702-66.835,66.615c0,36.916,29.923,66.728,66.835,66.728s66.835-29.562,66.835-66.478
	c0-5.261-1.478-11.041-2.624-16.499l43.083-44.116l-21.008-1.03L609.324,13.463z M566.295,125.127H457.586
	c-3.713-7.277-5.798-16.499-5.798-25.729c0-2.393,0.156-3.376,0.428-7.015h119.445c0.272,3.638,0.429,4.623,0.429,7.015
	C572.091,108.627,570.008,117.851,566.295,125.127z"/>
<circle fill="#FFFFFF" cx="629.495" cy="130.066" r="10.189"/>
<circle fill="#FFFFFF" cx="671.468" cy="130.363" r="10.189"/>
<path fill="#FFFFFF" d="M748.624,36.255l-42.847,33.875l23.779,1.487l-20.409,18.26c-10.972-21.83-31.742-33.922-57.909-33.922
	c-36.912,0-66.835,29.702-66.835,66.614c0,36.916,29.923,66.728,66.835,66.728s66.835-29.562,66.835-66.477
	c0-5.261-1.477-11.041-2.624-16.499l43.083-44.116l-21.008-1.03L748.624,36.255z M705.594,147.919H596.885
	c-3.713-7.277-5.798-16.5-5.798-25.729c0-2.394,0.157-3.376,0.428-7.016h119.446c0.271,3.638,0.427,4.623,0.427,7.016
	C711.39,131.419,709.306,140.643,705.594,147.919z"/>
<path fill="#976DD0" d="M223.496,535.174c0,38.758-31.421,70.176-70.18,70.176c-38.76,0-70.181-31.418-70.181-70.176
	c0-38.762,31.421-70.182,70.181-70.182C192.075,464.992,223.496,496.412,223.496,535.174z"/>
<circle fill="#FF9700" cx="130.275" cy="542.625" r="10.615"/>
<path fill="#FF9700" d="M174,532.32c5.861,0,10.613,4.752,10.613,10.613c0,5.859-4.752,10.615-10.613,10.615
	c-5.865,0-10.615-4.756-10.615-10.615C163.385,537.072,168.136,532.32,174,532.32z"/>
<path fill="#FF9700" d="M254.375,444.898l-44.634,35.292l24.771,1.547l-21.261,19.023c-11.428-22.742-33.065-35.34-60.325-35.34
	c-38.452,0-69.625,30.943-69.625,69.396s31.173,69.508,69.625,69.508c38.453,0,69.624-30.793,69.624-69.248
	c0-5.482-1.539-11.502-2.734-17.188l44.881-45.957l-21.885-1.072L254.375,444.898z M209.55,561.221H96.304
	c-3.867-7.578-6.039-17.188-6.039-26.801c0-2.492,0.164-3.518,0.445-7.311h124.43c0.285,3.793,0.446,4.818,0.446,7.311
	C215.587,544.033,213.417,553.643,209.55,561.221z"/>
<circle fill="#976DD0" cx="88.364" cy="444.898" r="70.18"/>
<circle fill="#FF9700" cx="65.323" cy="452.35" r="10.615"/>
<path fill="#FF9700" d="M109.049,442.046c5.861,0,10.613,4.751,10.613,10.614c0,5.859-4.752,10.613-10.613,10.613
	c-5.865,0-10.615-4.754-10.615-10.613C98.434,446.798,103.185,442.046,109.049,442.046z"/>
<path fill="#FF9700" d="M189.423,354.625l-44.634,35.29l24.771,1.548l-21.262,19.023c-11.427-22.742-33.065-35.339-60.325-35.339
	c-38.451,0-69.625,30.942-69.625,69.395c0,38.455,31.173,69.51,69.625,69.51c38.453,0,69.625-30.793,69.625-69.249
	c0-5.481-1.539-11.502-2.734-17.188l44.881-45.956l-21.885-1.074L189.423,354.625z M144.599,470.947H31.353
	c-3.867-7.58-6.04-17.188-6.04-26.802c0-2.493,0.164-3.519,0.445-7.309h124.43c0.284,3.79,0.446,4.816,0.446,7.309
	C150.635,453.759,148.466,463.367,144.599,470.947z"/>
<circle fill="#976DD0" cx="243.93" cy="463.424" r="70.18"/>
<circle fill="#FF9700" cx="220.89" cy="470.875" r="10.615"/>
<path fill="#FF9700" d="M264.615,460.57c5.861,0,10.613,4.752,10.613,10.615c0,5.861-4.751,10.613-10.613,10.613
	c-5.864,0-10.615-4.752-10.615-10.613C254,465.322,258.751,460.57,264.615,460.57z"/>
<path fill="#FF9700" d="M344.99,373.15l-44.634,35.29l24.771,1.548l-21.261,19.023c-11.427-22.742-33.065-35.338-60.325-35.338
	c-38.452,0-69.625,30.941-69.625,69.394c0,38.455,31.173,69.51,69.625,69.51c38.453,0,69.625-30.793,69.625-69.25
	c0-5.479-1.539-11.502-2.734-17.188l44.881-45.956l-21.885-1.074L344.99,373.15z M300.164,489.475H186.919
	c-3.868-7.582-6.04-17.189-6.04-26.805c0-2.492,0.164-3.518,0.445-7.309h124.429c0.285,3.791,0.447,4.816,0.447,7.309
	C306.202,472.283,304.032,481.893,300.164,489.475z"/>
<g>
	<rect x="8.214" y="925.732" fill="none" width="983.571" height="74.268"/>
	<path fill="#FFFFFF" d="M312.892,967.792v-2.7c1.56,0.66,3.96,1.08,6.3,1.08c5.16,0,7.38-2.46,7.38-7.14v-30.599h3.3v30.659
		c0,5.819-3.12,9.899-10.379,9.899C316.852,968.992,314.692,968.572,312.892,967.792z"/>
	<path fill="#FFFFFF" d="M336.892,954.413v-0.78c0-9.66,5.58-14.939,13.14-14.939c7.979,0,13.199,5.1,13.199,14.759v0.721
		c0,9.659-5.58,14.999-13.259,14.999C342.052,969.172,336.892,964.072,336.892,954.413z M359.991,954.473v-1.14
		c0-8.76-4.32-12.06-10.02-12.06c-5.82,0-9.84,4.199-9.84,12.06v1.199c0,8.58,4.26,12.06,9.96,12.06
		C355.971,966.592,359.991,962.452,359.991,954.473z"/>
	<path fill="#FFFFFF" d="M370.012,929.273h3.3v3.66h-3.3V929.273z M370.072,939.233h3.18v29.459h-3.18V939.233z"/>
	<path fill="#FFFFFF" d="M381.952,939.233h3.06v2.699h0.18c3.12-2.039,7.02-3.239,10.74-3.239c5.64,0,8.58,2.22,8.58,7.859v22.14
		h-3.12v-21.479c0-4.14-1.8-5.76-6.66-5.76c-3.24,0-6.66,1.02-9.6,2.7v24.539h-3.18V939.233z"/>
	<path fill="#FFFFFF" d="M427.25,976.852v-2.28c0.78,0.181,1.92,0.301,3,0.301c3.12,0,4.62-1.2,5.82-4.26l1.26-3.24l-11.459-28.199
		h3.3l9.72,24.06h0.12l9-24.06h3.12l-12.12,31.799c-1.74,4.561-3.66,6.6-8.28,6.6C429.471,977.571,428.031,977.212,427.25,976.852z"
		/>
	<path fill="#FFFFFF" d="M454.67,954.413v-0.78c0-9.66,5.58-14.939,13.14-14.939c7.979,0,13.199,5.1,13.199,14.759v0.721
		c0,9.659-5.58,14.999-13.259,14.999C459.83,969.172,454.67,964.072,454.67,954.413z M477.77,954.473v-1.14
		c0-8.76-4.32-12.06-10.02-12.06c-5.82,0-9.84,4.199-9.84,12.06v1.199c0,8.58,4.26,12.06,9.96,12.06
		C473.75,966.592,477.77,962.452,477.77,954.473z"/>
	<path fill="#FFFFFF" d="M487.61,960.952v-21.719h3.12v21.239c0,4.38,1.92,5.999,6.6,5.999c3.3,0,6.539-1.079,9.419-2.819v-24.419
		h3.18v29.459h-2.76l-0.3-2.76h-0.18c-3.12,1.979-6.72,3.3-10.2,3.3C490.85,969.232,487.61,966.592,487.61,960.952z"/>
	<path fill="#FFFFFF" d="M518.51,939.173h3.06v3.48h0.181c1.8-1.92,5.1-3.84,8.76-3.84c0.6,0,1.319,0.06,1.739,0.18v2.88
		c-0.66-0.12-1.5-0.18-1.979-0.18c-3.36,0-6.479,1.5-8.58,3.3v23.699h-3.18V939.173z"/>
	<path fill="#FFFFFF" d="M555.77,962.513v-20.699h-4.32v-2.58h4.32v-6.96h3.18v6.96h8.039v2.58h-8.039v20.279
		c0,2.939,1.02,4.26,4.68,4.26c1.32,0,2.76-0.24,3.96-0.54v2.1c-1.021,0.54-2.46,1.02-4.74,1.02
		C558.349,968.932,555.77,967.012,555.77,962.513z"/>
	<path fill="#FFFFFF" d="M572.029,954.293v-0.66c0-10.26,5.879-14.939,12.779-14.939c7.979,0,11.64,4.92,11.64,13.739v1.8h-21.239
		c0,8.52,3.72,12.18,11.159,12.18c3.96,0,6.78-0.9,9.12-2.1v2.46c-1.801,1.08-5.04,2.399-9.54,2.399
		C576.709,969.172,572.029,963.772,572.029,954.293z M575.269,951.713h17.939c0-6.96-2.76-10.439-8.52-10.439
		C580.068,941.273,575.749,944.213,575.269,951.713z"/>
	<path fill="#FFFFFF" d="M601.188,961.132c0-5.1,3.06-7.799,8.819-8.459l8.7-0.96v-3.84c0-4.979-2.28-6.42-7.56-6.42
		c-2.94,0-5.34,0.479-7.44,1.08v-2.28c2.521-1.02,5.28-1.56,8.58-1.56c6.12,0,9.54,2.52,9.54,8.46v21.539h-2.641l-0.239-2.641
		h-0.181c-1.5,1.561-4.199,3.12-8.52,3.12C604.908,969.172,601.188,966.232,601.188,961.132z M618.708,964.072v-10.02l-7.86,0.899
		c-4.439,0.48-6.479,2.28-6.479,6.061c0,3.659,2.58,5.699,6.66,5.699C614.328,966.712,617.147,965.452,618.708,964.072z"/>
	<path fill="#FFFFFF" d="M630.348,939.233h3.061v2.699h0.18c3.12-1.979,6.479-3.239,9.84-3.239c3.3,0,5.76,1.08,6.96,3.359h0.18
		c3.78-2.34,7.26-3.359,10.619-3.359c4.86,0,8.04,2.22,8.04,7.859v22.14h-3.18v-21.479c0-4.14-1.98-5.76-6.06-5.76
		c-2.641,0-5.58,0.9-8.88,2.7c0.18,0.72,0.3,1.5,0.3,2.399v22.14h-3.24v-21.479c0-4.14-1.8-5.76-5.879-5.76
		c-2.88,0-5.82,1.02-8.76,2.7v24.539h-3.181V939.233z"/>
	<path fill="#FFFFFF" d="M679.367,926.334h3.78l-0.66,34.139h-2.52L679.367,926.334z M679.487,965.452h3.54v4.26h-3.54V965.452z"/>
</g>
<circle fill="#976DD0" cx="671.468" cy="400.514" r="70.18"/>
<circle fill="#FDFF00" cx="648.428" cy="407.967" r="10.615"/>
<path fill="#FDFF00" d="M692.153,397.662c5.86,0,10.612,4.752,10.612,10.615c0,5.861-4.752,10.613-10.612,10.613
	c-5.865,0-10.616-4.752-10.616-10.613C681.537,402.414,686.288,397.662,692.153,397.662z"/>
<path fill="#FDFF00" d="M772.527,310.241l-44.634,35.29l24.771,1.549l-21.261,19.023c-11.429-22.742-33.067-35.339-60.326-35.339
	c-38.452,0-69.624,30.942-69.624,69.394c0,38.457,31.172,69.511,69.624,69.511c38.453,0,69.625-30.795,69.625-69.25
	c0-5.48-1.54-11.501-2.735-17.187l44.882-45.957l-21.886-1.073L772.527,310.241z M727.702,426.564H614.456
	c-3.866-7.58-6.039-17.188-6.039-26.803c0-2.493,0.164-3.517,0.445-7.308h124.43c0.285,3.79,0.446,4.815,0.446,7.308
	C733.739,409.375,731.569,418.984,727.702,426.564z"/>
<circle fill="#976DD0" cx="762.248" cy="446.437" r="70.18"/>
<circle fill="#FDFF00" cx="739.207" cy="453.888" r="10.615"/>
<circle fill="#FDFF00" cx="782.933" cy="454.198" r="10.614"/>
<path fill="#FDFF00" d="M863.308,356.163l-44.634,35.29l24.771,1.549l-21.262,19.022c-11.428-22.742-33.065-35.338-60.325-35.338
	c-38.452,0-69.625,30.941-69.625,69.394c0,38.456,31.173,69.511,69.625,69.511c38.453,0,69.624-30.795,69.624-69.25
	c0-5.481-1.539-11.502-2.733-17.188l44.881-45.957l-21.885-1.073L863.308,356.163z M818.482,472.486H705.237
	c-3.868-7.58-6.04-17.188-6.04-26.803c0-2.493,0.163-3.518,0.445-7.309h124.43c0.284,3.791,0.446,4.816,0.446,7.309
	C824.52,455.297,822.35,464.906,818.482,472.486z"/>
<circle fill="#976DD0" cx="869.581" cy="480.742" r="70.18"/>
<circle fill="#FDFF00" cx="846.54" cy="488.193" r="10.615"/>
<circle fill="#FDFF00" cx="890.265" cy="488.503" r="10.614"/>
<path fill="#FDFF00" d="M970.64,390.467l-44.635,35.291l24.771,1.548l-21.261,19.022c-11.428-22.742-33.065-35.339-60.325-35.339
	c-38.451,0-69.624,30.942-69.624,69.395c0,38.457,31.173,69.51,69.624,69.51c38.452,0,69.624-30.795,69.624-69.25
	c0-5.48-1.539-11.502-2.733-17.188l44.881-45.956l-21.885-1.074L970.64,390.467z M925.814,506.791H812.568
	c-3.867-7.58-6.039-17.188-6.039-26.803c0-2.492,0.163-3.518,0.445-7.309h124.43c0.285,3.791,0.446,4.816,0.446,7.309
	C931.852,489.602,929.682,499.211,925.814,506.791z"/>
<g>
	<path fill="none" stroke="#FFFFFF" stroke-width="8" stroke-linecap="square" stroke-miterlimit="9" stroke-dasharray="20,20" d="
		M435.541,250.397c-32.139,56.219-91.017,212.14,36.661,469.296"/>
	<g>
		<polygon fill="#FFFFFF" points="416.037,244.587 451.659,226.647 449.386,266.468 		"/>
	</g>
</g>
</svg>
