<svg version="1.2" baseProfile="tiny"
	 xmlns="http://www.w3.org/2000/svg" xmlns:xlink="http://www.w3.org/1999/xlink" xmlns:a="http://ns.adobe.com/AdobeSVGViewerExtensions/3.0/"
	 x="0px" y="0px" width="1000px" height="1000px" viewBox="1.721 0 1000 1000" overflow="visible" xml:space="preserve">
<defs>
</defs>
<rect x="1.721" display="none" fill="#976DD0" width="1000" height="1000"/>
<path fill="#FFFFFF" d="M603.087,1033.344c-7.278-4.903-7.428-5.646-7.428-33.727v-26.594l5.05-5.049l5.053-5.053h86.021
	c66.558,0,86.614,0.444,88.397,1.93c6.536,5.352,7.131,8.023,7.131,35.656v26.595l-4.309,4.31l-4.308,4.309h-86.021
	C615.418,1035.721,606.357,1035.422,603.087,1033.344z"/>
<path fill="#FFFFFF" d="M620.47,941.081c-0.595-0.444-1.04-5.496-1.04-10.991c0-8.767-0.445-10.104-2.972-10.995
	c-4.902-1.485-20.649-16.938-27.188-26.595c-7.726-11.438-14.561-27.633-19.018-45.312l-3.564-13.967l-17.086-14.262
	c-9.359-7.875-26.444-21.989-37.885-31.199c-23.474-19.018-26.148-21.838-31.349-31.646c-4.308-8.467-4.901-24.661-1.187-33.575
	c5.644-13.815,18.571-21.096,37.29-21.096c16.938,0,27.633,4.457,47.095,19.61c40.708,31.941,70.57,46.354,89.735,43.531
	c5.349-0.743,8.319-2.377,13.075-7.28c12.776-12.629,14.41-33.724,4.308-55.118l-3.714-7.728v-49.323
	c0-42.937,0.298-49.325,2.229-50.218c1.336-0.445,5.942,1.636,10.845,4.755c9.657,6.389,91.222,87.357,97.461,96.719
	c8.468,12.924,12.479,40.708,8.32,57.794c-0.891,3.267-2.081,11.586-2.823,18.57c-0.891,6.981-2.822,21.69-4.456,32.686
	c-6.241,40.708-11.292,93.003-12.479,125.54l-0.298,10.399l-72.205,0.444C653.898,941.975,620.916,941.676,620.47,941.081z"/>
<g>
	<rect y="925.788" fill="none" width="577.905" height="74.268"/>
	<path fill="#FFFFFF" d="M128.995,928.489h4.8l13.2,35.818h0.18l13.199-35.818h4.92v40.259h-3.3v-36.059h-0.06l-13.439,36.059h-3.06
		l-13.379-36.059h-0.12v36.059h-2.94V928.489z"/>
	<path fill="#FFFFFF" d="M172.735,961.188c0-5.1,3.06-7.799,8.82-8.459l8.7-0.96v-3.84c0-4.979-2.28-6.42-7.56-6.42
		c-2.939,0-5.34,0.479-7.439,1.08v-2.28c2.52-1.02,5.28-1.56,8.58-1.56c6.12,0,9.54,2.52,9.54,8.46v21.539h-2.64l-0.24-2.641h-0.18
		c-1.5,1.561-4.2,3.12-8.52,3.12C176.455,969.228,172.735,966.288,172.735,961.188z M190.254,964.128v-10.02l-7.86,0.899
		c-4.44,0.48-6.479,2.28-6.479,6.061c0,3.659,2.58,5.699,6.66,5.699C185.875,966.768,188.694,965.508,190.254,964.128z"/>
	<path fill="#FFFFFF" d="M201.894,925.789h3.12v42.959h-3.12V925.789z M205.854,953.448l12.839-14.159h3.48l-12.839,13.979
		l13.679,15.479h-3.6L205.854,953.448z"/>
	<path fill="#FFFFFF" d="M227.094,954.349v-0.66c0-10.26,5.88-14.939,12.779-14.939c7.98,0,11.64,4.92,11.64,13.739v1.8h-21.239
		c0,8.52,3.72,12.18,11.16,12.18c3.96,0,6.78-0.9,9.12-2.1v2.46c-1.8,1.08-5.04,2.399-9.54,2.399
		C231.773,969.228,227.094,963.828,227.094,954.349z M230.333,951.769h17.939c0-6.96-2.76-10.439-8.52-10.439
		C235.133,941.329,230.813,944.269,230.333,951.769z"/>
	<path fill="#FFFFFF" d="M274.013,939.289h3v2.46h0.18c2.16-1.561,5.28-3,9.48-3c6.66,0,11.939,3.479,11.939,14.759v0.601
		c0,10.56-5.16,15.119-13.439,15.119c-3.54,0-6.24-1.02-8.04-2.1v10.619h-3.12V939.289z M295.372,954.528v-0.9
		c0-9.419-3.6-12.119-9.419-12.119c-3.84,0-7.02,1.32-8.82,2.58v20.339c1.68,1.14,4.5,2.22,7.86,2.22
		C291.413,966.647,295.372,963.168,295.372,954.528z"/>
	<path fill="#FFFFFF" d="M305.453,925.789h3.18v16.14h0.24c3-1.979,6.84-3.18,10.56-3.18c5.64,0,8.58,2.28,8.58,7.92v22.079h-3.12
		v-21.479c0-4.14-1.8-5.76-6.66-5.76c-3.24,0-6.66,1.08-9.6,2.7v24.539h-3.18V925.789z"/>
	<path fill="#FFFFFF" d="M334.612,954.469v-0.78c0-9.66,5.58-14.939,13.14-14.939c7.979,0,13.199,5.1,13.199,14.759v0.721
		c0,9.659-5.58,14.999-13.259,14.999C339.772,969.228,334.612,964.128,334.612,954.469z M357.711,954.528v-1.14
		c0-8.76-4.32-12.06-10.02-12.06c-5.82,0-9.84,4.199-9.84,12.06v1.199c0,8.58,4.26,12.06,9.959,12.06
		C353.691,966.647,357.711,962.508,357.711,954.528z"/>
	<path fill="#FFFFFF" d="M369.472,962.568v-20.699h-4.32v-2.58h4.32v-6.96h3.18v6.96h8.04v2.58h-8.04v20.279
		c0,2.939,1.02,4.26,4.68,4.26c1.32,0,2.76-0.24,3.96-0.54v2.1c-1.02,0.54-2.46,1.02-4.74,1.02
		C372.052,968.987,369.472,967.067,369.472,962.568z"/>
	<path fill="#FFFFFF" d="M385.731,954.469v-0.78c0-9.66,5.58-14.939,13.14-14.939c7.979,0,13.199,5.1,13.199,14.759v0.721
		c0,9.659-5.58,14.999-13.259,14.999C390.891,969.228,385.731,964.128,385.731,954.469z M408.831,954.528v-1.14
		c0-8.76-4.32-12.06-10.02-12.06c-5.82,0-9.84,4.199-9.84,12.06v1.199c0,8.58,4.26,12.06,9.959,12.06
		C404.811,966.647,408.831,962.508,408.831,954.528z"/>
	<path fill="#FFFFFF" d="M416.751,967.067v-2.579c2.34,1.079,4.74,1.979,8.94,1.979c5.28,0,7.259-2.22,7.259-5.28
		c0-3.419-1.5-4.619-5.76-5.819l-3.12-0.96c-4.38-1.2-7.02-3.12-7.02-7.92c0-4.56,3.18-7.739,9.6-7.739
		c3.78,0,6.24,0.899,7.919,1.74v2.579c-1.8-0.84-4.68-1.56-7.74-1.56c-4.5,0-6.78,1.68-6.78,4.74c0,3.06,1.38,4.319,5.04,5.399
		l3.24,0.9c5.4,1.499,7.8,3.239,7.8,8.399c0,4.979-3.36,8.22-10.08,8.22C422.091,969.168,418.911,968.268,416.751,967.067z"/>
	<path fill="#FFFFFF" d="M444.47,926.39h3.78l-0.66,34.139h-2.52L444.47,926.39z M444.59,965.508h3.54v4.26h-3.54V965.508z"/>
</g>
<circle fill="#FFFFFF" cx="486.919" cy="542.516" r="10.189"/>
<circle fill="#FFFFFF" cx="528.892" cy="542.812" r="10.189"/>
<path fill="#FFFFFF" d="M606.047,448.703l-42.846,33.877l23.779,1.486l-20.408,18.26c-10.973-21.831-31.742-33.922-57.91-33.922
	c-36.911,0-66.834,29.701-66.834,66.614c0,36.916,29.923,66.729,66.834,66.729c36.913,0,66.834-29.562,66.834-66.477
	c0-5.262-1.477-11.041-2.623-16.5l43.084-44.116l-21.01-1.031L606.047,448.703z M563.018,560.367H454.309
	c-3.712-7.275-5.798-16.498-5.798-25.729c0-2.395,0.157-3.377,0.428-7.016h119.446c0.271,3.637,0.426,4.621,0.426,7.016
	C568.813,543.867,566.731,553.092,563.018,560.367z"/>
<path fill="#FFFFFF" d="M548.228,362.981l-24.273-25.085c9.125-2.51,15.164-5.143,15.164-5.143l-20.418-25.321
	c6.839-2.429,11.311-4.872,11.311-4.872l-17.192-26.733c4.898-2.51,8.083-4.972,8.083-4.972l-27.33-52.964l-27.324,52.964
	c0,0,3.183,2.462,8.081,4.972l-17.189,26.733c0,0,4.47,2.443,11.305,4.868l-20.415,25.324c0,0,6.04,2.633,15.163,5.143
	l-24.271,25.085c0,0,18.946,6.896,41.9,9.009v14.336h25.507V371.99C529.28,369.876,548.228,362.981,548.228,362.981z"/>
<path fill="#FFFFFF" stroke="#976DD0" stroke-miterlimit="9" d="M541.719,667.937l-44.365-30.78
	c16.678-3.08,27.718-6.311,27.718-6.311l-37.318-31.069c12.497-2.979,20.67-5.977,20.67-5.977L477,560.997
	c8.956-3.079,14.773-6.1,14.773-6.1l-49.949-64.988l-49.942,64.988c0,0,5.818,3.021,14.77,6.1L375.235,593.8
	c0,0,8.17,2.997,20.664,5.973l-37.314,31.073c0,0,11.04,3.23,27.715,6.311l-44.362,30.78c0,0,34.628,8.46,76.582,11.054v17.591
	h46.619V678.99C507.088,676.396,541.719,667.937,541.719,667.937z"/>
<path fill="#FFFFFF" stroke="#976DD0" stroke-miterlimit="9" d="M514.512,381.622l-44.365-30.78
	c16.678-3.08,27.718-6.311,27.718-6.311l-37.318-31.069c12.497-2.979,20.67-5.977,20.67-5.977l-31.424-32.803
	c8.956-3.079,14.773-6.1,14.773-6.1l-49.949-64.988l-49.942,64.988c0,0,5.818,3.021,14.77,6.1l-31.417,32.803
	c0,0,8.17,2.997,20.664,5.973l-37.314,31.073c0,0,11.04,3.23,27.715,6.311l-44.362,30.78c0,0,34.628,8.46,76.582,11.054v17.591
	h46.619v-17.591C479.882,390.082,514.512,381.622,514.512,381.622z"/>
<path fill="#FFFFFF" d="M614.407,839.328H333.32c-28.492,0-51.672-23.18-51.672-51.672V109.75c0-28.492,23.18-51.672,51.672-51.672
	h281.086c28.492,0,51.672,23.18,51.672,51.672v677.906C666.079,816.148,642.899,839.328,614.407,839.328z M333.32,70.477
	c-21.656,0-39.266,17.617-39.266,39.266v677.906c0,21.656,17.617,39.266,39.266,39.266h281.086
	c21.656,0,39.266-17.617,39.266-39.266V109.75c0-21.656-17.617-39.266-39.266-39.266H333.32V70.477z"/>
<path fill="#FFFFFF" d="M642.313,741.227H305.422V156.32h336.891V741.227z M311.625,735.031H636.11v-572.5H311.625V735.031z"/>
<path fill="#FFFFFF" d="M502.797,117.875H444.93c-3.984,0-7.234-3.242-7.234-7.234v-1.656c0-3.984,3.242-7.234,7.234-7.234h57.868
	c3.984,0,7.234,3.242,7.234,7.234v1.656C510.032,114.633,506.79,117.875,502.797,117.875z M444.93,107.953
	c-0.57,0-1.031,0.461-1.031,1.031v1.656c0,0.57,0.461,1.031,1.031,1.031h57.868c0.57,0,1.031-0.461,1.031-1.031v-1.656
	c0-0.57-0.461-1.031-1.031-1.031H444.93z"/>
<path fill="#FFFFFF" d="M414.617,119.945c-5.578,0-10.125-4.547-10.125-10.125c0-5.586,4.547-10.133,10.125-10.133
	c5.586,0,10.133,4.547,10.133,10.133C424.75,115.398,420.203,119.945,414.617,119.945z M414.617,105.891
	c-2.164,0-3.922,1.758-3.922,3.93c0,2.164,1.758,3.922,3.922,3.922c2.172,0,3.93-1.758,3.93-3.922
	C418.547,107.648,416.789,105.891,414.617,105.891z"/>
<path fill="#FFFFFF" d="M473.867,815.289c-17.664,0-32.039-14.367-32.039-32.039s14.367-32.039,32.039-32.039
	s32.04,14.367,32.04,32.039S491.531,815.289,473.867,815.289z M473.867,757.414c-14.242,0-25.836,11.594-25.836,25.836
	s11.594,25.836,25.836,25.836s25.836-11.594,25.836-25.836S488.109,757.414,473.867,757.414z"/>
<rect x="278.633" y="153.93" fill="#FFFFFF" width="10.32" height="35.648"/>
<rect x="278.633" y="220.469" fill="#FFFFFF" width="10.32" height="62.625"/>
<rect x="278.633" y="289.703" fill="#FFFFFF" width="10.32" height="64.734"/>
<rect x="658.852" y="218.977" fill="#FFFFFF" width="10.359" height="72.336"/>
</svg>
