<?xml version="1.0" encoding="utf-8"?>
<!-- Generator: Adobe Illustrator 15.0.0, SVG Export Plug-In  -->
<!DOCTYPE svg PUBLIC "-//W3C//DTD SVG 1.1//EN" "http://www.w3.org/Graphics/SVG/1.1/DTD/svg11.dtd" [
	<!ENTITY ns_flows "http://ns.adobe.com/Flows/1.0/">
]>
<svg version="1.1"
	 xmlns="http://www.w3.org/2000/svg" xmlns:xlink="http://www.w3.org/1999/xlink" xmlns:a="http://ns.adobe.com/AdobeSVGViewerExtensions/3.0/"
	 x="0px" y="0px" width="1000px" height="1000px" viewBox="0 0 1000 1000"
	 overflow="visible" enable-background="new 0 0 1000 1000" xml:space="preserve">
<defs>
</defs>
<rect display="none" fill="#976DD0" width="1000" height="1000"/>
<circle fill="#FFFFFF" cx="392.604" cy="213.553" r="8.971"/>
<circle fill="#FFFFFF" cx="429.557" cy="213.815" r="8.97"/>
<path fill="#FFFFFF" d="M497.483,130.963l-37.722,29.823l20.935,1.309l-17.967,16.076c-9.659-19.219-27.945-29.865-50.982-29.865
	c-32.497,0-58.84,26.149-58.84,58.646c0,32.5,26.344,58.746,58.84,58.746s58.841-26.026,58.841-58.525
	c0-4.632-1.301-9.72-2.311-14.525l37.931-38.839l-18.496-0.907L497.483,130.963z M459.6,229.271h-95.706
	c-3.269-6.407-5.104-14.526-5.104-22.652c0-2.107,0.138-2.973,0.376-6.177h105.159c0.24,3.203,0.377,4.07,0.377,6.177
	C464.703,214.744,462.869,222.864,459.6,229.271z"/>
<circle fill="#FFFFFF" cx="540.214" cy="193.227" r="8.97"/>
<circle fill="#FFFFFF" cx="577.167" cy="193.488" r="8.97"/>
<path fill="#FFFFFF" d="M645.093,110.636l-37.722,29.825l20.936,1.309l-17.968,16.077c-9.658-19.219-27.944-29.866-50.982-29.866
	c-32.497,0-58.84,26.149-58.84,58.646c0,32.5,26.343,58.746,58.84,58.746s58.841-26.026,58.841-58.526
	c0-4.631-1.301-9.72-2.311-14.525l37.931-38.839l-18.495-0.907L645.093,110.636z M607.211,208.944h-95.706
	c-3.27-6.407-5.104-14.526-5.104-22.652c0-2.106,0.138-2.972,0.376-6.176h105.158c0.24,3.203,0.378,4.07,0.378,6.176
	C612.313,194.418,610.479,202.538,607.211,208.944z"/>
<circle fill="#FFFFFF" cx="662.852" cy="213.292" r="8.971"/>
<circle fill="#FFFFFF" cx="699.804" cy="213.553" r="8.97"/>
<path fill="#FFFFFF" d="M767.73,130.702l-37.722,29.824l20.936,1.309l-17.968,16.076c-9.66-19.219-27.945-29.865-50.982-29.865
	c-32.497,0-58.841,26.149-58.841,58.646c0,32.5,26.344,58.746,58.841,58.746c32.496,0,58.84-26.026,58.84-58.525
	c0-4.632-1.3-9.721-2.31-14.525l37.93-38.839l-18.495-0.907L767.73,130.702z M729.848,229.01h-95.706
	c-3.269-6.406-5.104-14.526-5.104-22.652c0-2.107,0.139-2.973,0.377-6.177h105.159c0.238,3.203,0.375,4.07,0.375,6.177
	C734.95,214.483,733.115,222.604,729.848,229.01z"/>
<path fill="#FFFFFF" d="M517.833,749.397c6.197,0,11.222,5.023,11.222,11.222c0,6.201-5.024,11.228-11.222,11.228
	c-6.198,0-11.224-5.026-11.224-11.228C506.609,754.421,511.635,749.397,517.833,749.397z"/>
<circle fill="#FFFFFF" cx="564.068" cy="760.948" r="11.224"/>
<path fill="#FFFFFF" d="M649.062,657.281l-47.198,37.317l26.193,1.638l-22.481,20.113c-12.086-24.046-34.966-37.366-63.791-37.366
	c-40.66,0-73.622,32.718-73.622,73.378c0,40.666,32.961,73.506,73.622,73.506c40.662,0,73.623-32.564,73.623-73.228
	c0-5.797-1.626-12.162-2.891-18.177l47.461-48.595l-23.146-1.137L649.062,657.281z M601.662,780.286H481.911
	c-4.09-8.015-6.387-18.173-6.387-28.342c0-2.638,0.173-3.72,0.471-7.728h131.576c0.302,4.006,0.472,5.09,0.472,7.728
	C608.045,762.11,605.751,772.271,601.662,780.286z"/>
<g>
	<g>
		<path fill="none" stroke="#FFFFFF" stroke-width="8" stroke-linecap="square" stroke-miterlimit="9" stroke-dasharray="20,20" d="
			M484.959,317.567c-33.833,39.058-85.845,142.734,21.248,358.429"/>
		<g>
			<polygon fill="#FFFFFF" points="467.467,307.523 506.281,298.348 494.821,336.552 			"/>
		</g>
	</g>
</g>
<circle fill="#FF9700" cx="254.164" cy="630.908" r="9.345"/>
<path fill="#FF9700" d="M292.66,621.836c5.16,0,9.343,4.184,9.343,9.344c0,5.158-4.184,9.345-9.343,9.345
	c-5.163,0-9.346-4.187-9.346-9.345C283.314,626.02,287.497,621.836,292.66,621.836z"/>
<path fill="#FF9700" d="M363.42,544.87l-39.295,31.07l21.809,1.361l-18.718,16.748c-10.061-20.021-29.11-31.112-53.11-31.112
	c-33.852,0-61.296,27.242-61.296,61.096s27.444,61.193,61.296,61.193c33.854,0,61.296-27.109,61.296-60.965
	c0-4.826-1.355-10.126-2.407-15.132l39.513-40.46l-19.268-0.944L363.42,544.87z M323.957,647.279h-99.701
	c-3.404-6.672-5.317-15.132-5.317-23.596c0-2.193,0.144-3.097,0.392-6.436h109.547c0.251,3.339,0.393,4.242,0.393,6.436
	C329.272,632.147,327.361,640.607,323.957,647.279z"/>
<circle fill="#FF9700" cx="194.121" cy="535.978" r="9.345"/>
<path fill="#FF9700" d="M232.617,526.907c5.16,0,9.343,4.184,9.343,9.344c0,5.159-4.184,9.344-9.343,9.344
	c-5.164,0-9.346-4.185-9.346-9.344C223.271,531.091,227.453,526.907,232.617,526.907z"/>
<path fill="#FF9700" d="M303.377,449.942l-39.295,31.068l21.808,1.363l-18.718,16.748c-10.061-20.021-29.11-31.112-53.11-31.112
	c-33.852,0-61.296,27.241-61.296,61.094c0,33.855,27.445,61.195,61.296,61.195c33.854,0,61.297-27.109,61.297-60.965
	c0-4.826-1.355-10.127-2.407-15.133l39.512-40.459l-19.267-0.945L303.377,449.942z M263.914,552.351h-99.7
	c-3.405-6.673-5.317-15.131-5.317-23.597c0-2.193,0.145-3.096,0.392-6.434h109.547c0.25,3.338,0.393,4.24,0.393,6.434
	C269.229,537.22,267.318,545.678,263.914,552.351z"/>
<circle fill="#FF9700" cx="324.669" cy="529.466" r="9.345"/>
<circle fill="#FF9700" cx="363.165" cy="529.738" r="9.345"/>
<path fill="#FF9700" d="M433.925,443.43l-39.295,31.068l21.808,1.363l-18.718,16.748c-10.061-20.021-29.11-31.111-53.109-31.111
	c-33.853,0-61.297,27.24-61.297,61.094c0,33.855,27.444,61.195,61.297,61.195c33.854,0,61.296-27.109,61.296-60.967
	c0-4.824-1.355-10.126-2.407-15.132l39.513-40.458l-19.267-0.945L433.925,443.43z M394.461,545.841h-99.7
	c-3.405-6.675-5.317-15.133-5.317-23.599c0-2.193,0.144-3.097,0.392-6.435h109.546c0.251,3.338,0.393,4.241,0.393,6.435
	C399.777,530.706,397.866,539.166,394.461,545.841z"/>
<circle fill="#FDFF00" cx="658.11" cy="553.62" r="9.345"/>
<path fill="#FDFF00" d="M696.606,544.547c5.159,0,9.343,4.186,9.343,9.346s-4.184,9.344-9.343,9.344
	c-5.164,0-9.347-4.184-9.347-9.344S691.442,544.547,696.606,544.547z"/>
<path fill="#FDFF00" d="M767.366,467.583l-39.295,31.068l21.809,1.364l-18.718,16.748c-10.062-20.022-29.112-31.112-53.11-31.112
	c-33.853,0-61.296,27.241-61.296,61.093c0,33.857,27.443,61.197,61.296,61.197c33.854,0,61.297-27.111,61.297-60.968
	c0-4.825-1.355-10.125-2.408-15.13l39.514-40.46l-19.269-0.945L767.366,467.583z M727.902,569.992h-99.7
	c-3.403-6.672-5.316-15.132-5.316-23.597c0-2.194,0.145-3.097,0.392-6.435h109.547c0.251,3.338,0.393,4.24,0.393,6.435
	C733.218,554.86,731.308,563.32,727.902,569.992z"/>
<circle fill="#FDFF00" cx="760.871" cy="452.357" r="9.346"/>
<circle fill="#FDFF00" cx="799.366" cy="452.631" r="9.344"/>
<path fill="#FDFF00" d="M870.128,366.321l-39.295,31.068l21.808,1.364L833.923,415.5c-10.062-20.021-29.11-31.111-53.11-31.111
	c-33.853,0-61.297,27.24-61.297,61.094c0,33.856,27.444,61.196,61.297,61.196c33.854,0,61.297-27.111,61.297-60.966
	c0-4.826-1.355-10.127-2.406-15.132l39.512-40.459l-19.267-0.945L870.128,366.321z M830.664,468.731h-99.699
	c-3.406-6.673-5.318-15.132-5.318-23.597c0-2.195,0.144-3.097,0.393-6.435h109.546c0.251,3.338,0.394,4.24,0.394,6.435
	C835.979,453.598,834.068,462.058,830.664,468.731z"/>
<circle fill="#FDFF00" cx="790.021" cy="535.786" r="9.346"/>
<circle fill="#FDFF00" cx="828.517" cy="536.059" r="9.345"/>
<path fill="#FDFF00" d="M899.277,449.749l-39.296,31.07l21.809,1.363l-18.718,16.747c-10.061-20.021-29.11-31.112-53.109-31.112
	c-33.852,0-61.296,27.241-61.296,61.094c0,33.857,27.444,61.196,61.296,61.196c33.853,0,61.296-27.111,61.296-60.967
	c0-4.825-1.354-10.127-2.406-15.132l39.513-40.459l-19.268-0.945L899.277,449.749z M859.814,552.159h-99.701
	c-3.404-6.673-5.316-15.132-5.316-23.597c0-2.194,0.144-3.097,0.392-6.435h109.547c0.251,3.338,0.393,4.24,0.393,6.435
	C865.129,537.025,863.219,545.486,859.814,552.159z"/>
<g>
	<rect x="103.655" y="706.677" fill="none" width="313.932" height="170.4"/>
	<path fill="#FFFFFF" d="M151.032,748.736v-2.699c1.56,0.66,3.96,1.08,6.3,1.08c5.16,0,7.38-2.461,7.38-7.141v-30.598h3.3v30.658
		c0,5.82-3.12,9.9-10.379,9.9C154.992,749.938,152.833,749.518,151.032,748.736z"/>
	<path fill="#FFFFFF" d="M175.032,735.357v-0.779c0-9.66,5.58-14.939,13.14-14.939c7.979,0,13.199,5.1,13.199,14.76v0.719
		c0,9.66-5.58,15-13.259,15C180.192,750.117,175.032,745.018,175.032,735.357z M198.131,735.418v-1.141
		c0-8.76-4.32-12.059-10.02-12.059c-5.82,0-9.84,4.199-9.84,12.059v1.199c0,8.58,4.26,12.061,9.96,12.061
		C194.111,747.537,198.131,743.396,198.131,735.418z"/>
	<path fill="#FFFFFF" d="M208.152,710.219h3.3v3.66h-3.3V710.219z M208.212,720.178h3.18v29.459h-3.18V720.178z"/>
	<path fill="#FFFFFF" d="M220.092,720.178h3.06v2.701h0.18c3.12-2.041,7.02-3.24,10.74-3.24c5.64,0,8.58,2.219,8.58,7.859v22.139
		h-3.12v-21.479c0-4.141-1.8-5.76-6.66-5.76c-3.24,0-6.66,1.02-9.6,2.699v24.539h-3.18V720.178z"/>
	<path fill="#FFFFFF" d="M265.391,757.797v-2.279c0.78,0.18,1.92,0.299,3,0.299c3.12,0,4.62-1.199,5.82-4.26l1.26-3.24
		l-11.459-28.199h3.3l9.72,24.061h0.12l9-24.061h3.12l-12.12,31.799c-1.74,4.561-3.66,6.6-8.28,6.6
		C267.611,758.516,266.171,758.156,265.391,757.797z"/>
	<path fill="#FFFFFF" d="M292.811,735.357v-0.779c0-9.66,5.58-14.939,13.14-14.939c7.979,0,13.199,5.1,13.199,14.76v0.719
		c0,9.66-5.58,15-13.259,15C297.97,750.117,292.811,745.018,292.811,735.357z M315.91,735.418v-1.141
		c0-8.76-4.32-12.059-10.02-12.059c-5.82,0-9.84,4.199-9.84,12.059v1.199c0,8.58,4.26,12.061,9.96,12.061
		C311.89,747.537,315.91,743.396,315.91,735.418z"/>
	<path fill="#FFFFFF" d="M325.75,741.896v-21.719h3.12v21.24c0,4.379,1.92,5.998,6.6,5.998c3.3,0,6.54-1.078,9.419-2.818v-24.42
		h3.18v29.459h-2.76l-0.3-2.76h-0.18c-3.12,1.98-6.72,3.301-10.2,3.301C328.99,750.178,325.75,747.537,325.75,741.896z"/>
	<path fill="#FFFFFF" d="M356.649,720.117h3.06v3.48h0.18c1.8-1.92,5.1-3.84,8.76-3.84c0.6,0,1.32,0.061,1.74,0.18v2.881
		c-0.66-0.121-1.5-0.18-1.98-0.18c-3.36,0-6.48,1.5-8.58,3.299v23.699h-3.18V720.117z"/>
	<path fill="#FFFFFF" d="M197.111,815.457v-20.699h-4.32v-2.58h4.32v-6.959h3.18v6.959h8.04v2.58h-8.04v20.279
		c0,2.939,1.02,4.26,4.68,4.26c1.32,0,2.76-0.24,3.96-0.539v2.1c-1.02,0.539-2.46,1.02-4.74,1.02
		C199.691,821.877,197.111,819.957,197.111,815.457z"/>
	<path fill="#FFFFFF" d="M213.371,807.238v-0.66c0-10.26,5.88-14.939,12.779-14.939c7.98,0,11.64,4.92,11.64,13.738v1.801h-21.239
		c0,8.52,3.72,12.18,11.16,12.18c3.96,0,6.78-0.9,9.12-2.1v2.459c-1.8,1.08-5.04,2.4-9.54,2.4
		C218.051,822.117,213.371,816.717,213.371,807.238z M216.611,804.658h17.939c0-6.961-2.76-10.439-8.52-10.439
		C221.411,794.219,217.091,797.158,216.611,804.658z"/>
	<path fill="#FFFFFF" d="M242.531,814.078c0-5.102,3.06-7.801,8.82-8.461l8.7-0.959v-3.84c0-4.98-2.28-6.42-7.56-6.42
		c-2.94,0-5.339,0.48-7.439,1.08v-2.281c2.52-1.02,5.28-1.559,8.58-1.559c6.12,0,9.54,2.52,9.54,8.459v21.539h-2.64l-0.24-2.641
		h-0.18c-1.5,1.561-4.2,3.121-8.52,3.121C246.25,822.117,242.531,819.178,242.531,814.078z M260.05,817.018v-10.02l-7.86,0.898
		c-4.44,0.48-6.48,2.281-6.48,6.061c0,3.66,2.58,5.699,6.66,5.699C255.67,819.656,258.49,818.396,260.05,817.018z"/>
	<path fill="#FFFFFF" d="M271.69,792.178h3.06v2.701h0.18c3.12-1.98,6.48-3.24,9.84-3.24c3.3,0,5.76,1.08,6.959,3.359h0.18
		c3.78-2.34,7.26-3.359,10.62-3.359c4.86,0,8.04,2.219,8.04,7.859v22.139h-3.18v-21.479c0-4.141-1.98-5.76-6.06-5.76
		c-2.64,0-5.58,0.9-8.879,2.699c0.18,0.721,0.3,1.5,0.3,2.4v22.139h-3.24v-21.479c0-4.141-1.8-5.76-5.88-5.76
		c-2.88,0-5.82,1.02-8.76,2.699v24.539h-3.18V792.178z"/>
	<path fill="#FFFFFF" d="M320.709,779.279h3.78l-0.66,34.139h-2.52L320.709,779.279z M320.829,818.396h3.54v4.26h-3.54V818.396z"/>
</g>
</svg>
