<?xml version="1.0" encoding="utf-8"?>
<!-- Generator: Adobe Illustrator 15.0.0, SVG Export Plug-In  -->
<!DOCTYPE svg PUBLIC "-//W3C//DTD SVG 1.1//EN" "http://www.w3.org/Graphics/SVG/1.1/DTD/svg11.dtd" [
	<!ENTITY ns_flows "http://ns.adobe.com/Flows/1.0/">
]>
<svg version="1.1"
	 xmlns="http://www.w3.org/2000/svg" xmlns:xlink="http://www.w3.org/1999/xlink" xmlns:a="http://ns.adobe.com/AdobeSVGViewerExtensions/3.0/"
	 x="0px" y="0px" width="1000px" height="1000px" viewBox="0 0 1000 1000"
	 overflow="visible" enable-background="new 0 0 1000 1000" xml:space="preserve">
<defs>
</defs>
<rect display="none" fill="#976DD0" width="1000" height="1000"/>
<g>
	<rect x="2.415" y="706.276" fill="none" width="587.991" height="176.212"/>
	<path fill="#FFFFFF" d="M255.64,711.737h-13.08v-2.76h29.458v2.76H258.94v37.499h-3.3V711.737z"/>
	<path fill="#FFFFFF" d="M270.641,741.676c0-5.1,3.06-7.799,8.82-8.459l8.7-0.96v-3.84c0-4.979-2.28-6.42-7.56-6.42
		c-2.939,0-5.34,0.479-7.439,1.08v-2.28c2.52-1.02,5.28-1.56,8.58-1.56c6.12,0,9.54,2.52,9.54,8.46v21.539h-2.64l-0.24-2.641h-0.18
		c-1.5,1.561-4.2,3.12-8.52,3.12C274.36,749.716,270.641,746.776,270.641,741.676z M288.16,744.616v-10.02l-7.86,0.899
		c-4.44,0.48-6.479,2.28-6.479,6.061c0,3.659,2.58,5.699,6.66,5.699C283.78,747.256,286.6,745.996,288.16,744.616z"/>
	<path fill="#FFFFFF" d="M299.8,706.277h3.12v42.959h-3.12V706.277z M303.76,733.937l12.839-14.159h3.48l-12.839,13.979
		l13.679,15.479h-3.6L303.76,733.937z"/>
	<path fill="#FFFFFF" d="M325,734.837v-0.66c0-10.26,5.88-14.939,12.779-14.939c7.98,0,11.64,4.92,11.64,13.739v1.8h-21.239
		c0,8.52,3.72,12.18,11.16,12.18c3.96,0,6.78-0.9,9.12-2.1v2.46c-1.8,1.08-5.04,2.399-9.54,2.399
		C329.679,749.716,325,744.316,325,734.837z M328.239,732.257h17.939c0-6.96-2.76-10.439-8.52-10.439
		C333.039,721.817,328.719,724.757,328.239,732.257z"/>
	<path fill="#FFFFFF" d="M150.672,829.396v-2.28c0.78,0.181,1.92,0.301,3,0.301c3.12,0,4.62-1.2,5.82-4.26l1.26-3.24l-11.459-28.199
		h3.3l9.72,24.06h0.12l9-24.06h3.12l-12.12,31.799c-1.74,4.561-3.66,6.6-8.28,6.6C152.892,830.115,151.452,829.756,150.672,829.396z
		"/>
	<path fill="#FFFFFF" d="M178.092,806.957v-0.78c0-9.66,5.58-14.939,13.14-14.939c7.979,0,13.199,5.1,13.199,14.759v0.721
		c0,9.659-5.58,14.999-13.259,14.999C183.251,821.716,178.092,816.616,178.092,806.957z M201.191,807.017v-1.14
		c0-8.76-4.32-12.06-10.02-12.06c-5.82,0-9.84,4.199-9.84,12.06v1.199c0,8.58,4.26,12.06,9.96,12.06
		C197.171,819.136,201.191,814.996,201.191,807.017z"/>
	<path fill="#FFFFFF" d="M211.031,813.496v-21.719h3.12v21.239c0,4.38,1.92,5.999,6.6,5.999c3.3,0,6.54-1.079,9.419-2.819v-24.419
		h3.18v29.459h-2.76l-0.3-2.76h-0.18c-3.12,1.979-6.72,3.3-10.2,3.3C214.271,821.776,211.031,819.136,211.031,813.496z"/>
	<path fill="#FFFFFF" d="M241.931,791.717h3.06v3.48h0.18c1.8-1.92,5.1-3.84,8.76-3.84c0.6,0,1.32,0.06,1.74,0.18v2.88
		c-0.66-0.12-1.5-0.18-1.98-0.18c-3.36,0-6.48,1.5-8.58,3.3v23.699h-3.18V791.717z"/>
	<path fill="#FFFFFF" d="M275.47,806.896v-0.72c0-10.439,5.88-14.939,13.439-14.939c3.78,0,6.06,0.66,8.1,1.92v2.76
		c-2.46-1.26-4.5-1.92-8.339-1.92c-5.76,0-9.96,3.66-9.96,11.699v1.141c0,7.919,3.3,12.119,10.38,12.119
		c4.14,0,6.72-1.26,8.339-2.22v2.64c-1.92,1.14-4.38,2.34-8.7,2.34C280.149,821.716,275.47,816.376,275.47,806.896z"/>
	<path fill="#FFFFFF" d="M303.849,778.277h3.18v16.14h0.24c3-1.979,6.84-3.18,10.56-3.18c5.64,0,8.58,2.28,8.58,7.92v22.079h-3.12
		v-21.479c0-4.14-1.8-5.76-6.66-5.76c-3.24,0-6.66,1.08-9.6,2.7v24.539h-3.18V778.277z"/>
	<path fill="#FFFFFF" d="M333.009,806.957v-0.78c0-9.66,5.58-14.939,13.14-14.939c7.979,0,13.199,5.1,13.199,14.759v0.721
		c0,9.659-5.58,14.999-13.259,14.999C338.168,821.716,333.009,816.616,333.009,806.957z M356.108,807.017v-1.14
		c0-8.76-4.32-12.06-10.02-12.06c-5.82,0-9.84,4.199-9.84,12.06v1.199c0,8.58,4.26,12.06,9.96,12.06
		C352.088,819.136,356.108,814.996,356.108,807.017z"/>
	<path fill="#FFFFFF" d="M366.128,781.817h3.3v3.66h-3.3V781.817z M366.188,791.777h3.18v29.459h-3.18V791.777z"/>
	<path fill="#FFFFFF" d="M376.148,806.896v-0.72c0-10.439,5.88-14.939,13.439-14.939c3.78,0,6.06,0.66,8.1,1.92v2.76
		c-2.46-1.26-4.5-1.92-8.339-1.92c-5.76,0-9.96,3.66-9.96,11.699v1.141c0,7.919,3.3,12.119,10.38,12.119
		c4.14,0,6.72-1.26,8.339-2.22v2.64c-1.92,1.14-4.38,2.34-8.7,2.34C380.828,821.716,376.148,816.376,376.148,806.896z"/>
	<path fill="#FFFFFF" d="M402.608,806.837v-0.66c0-10.26,5.88-14.939,12.779-14.939c7.98,0,11.64,4.92,11.64,13.739v1.8h-21.239
		c0,8.52,3.72,12.18,11.16,12.18c3.96,0,6.78-0.9,9.12-2.1v2.46c-1.8,1.08-5.04,2.399-9.54,2.399
		C407.288,821.716,402.608,816.316,402.608,806.837z M405.848,804.257h17.939c0-6.96-2.76-10.439-8.52-10.439
		C410.647,793.817,406.328,796.757,405.848,804.257z"/>
	<path fill="#FFFFFF" d="M435.368,778.878h3.78l-0.66,34.139h-2.52L435.368,778.878z M435.488,817.996h3.54v4.26h-3.54V817.996z"/>
</g>
<circle fill="#FFFFFF" cx="75.412" cy="451.482" r="3.149"/>
<circle fill="#FFFFFF" cx="88.384" cy="451.574" r="3.149"/>
<path fill="#FFFFFF" d="M112.23,422.488l-13.242,10.47l7.349,0.46l-6.308,5.644c-3.391-6.747-9.811-10.484-17.898-10.484
	c-11.408,0-20.656,9.18-20.656,20.588c0,11.41,9.249,20.624,20.656,20.624c11.409,0,20.657-9.137,20.657-20.546
	c0-1.626-0.457-3.412-0.811-5.1l13.316-13.635l-6.494-0.319L112.23,422.488z M98.931,457H65.333
	c-1.147-2.248-1.792-5.099-1.792-7.951c0-0.74,0.049-1.044,0.132-2.169h36.917c0.084,1.124,0.131,1.429,0.131,2.169
	C100.722,451.9,100.079,454.751,98.931,457z"/>
<circle fill="#FFFFFF" cx="86.199" cy="389.943" r="3.149"/>
<circle fill="#FFFFFF" cx="99.171" cy="390.035" r="3.149"/>
<path fill="#FFFFFF" d="M123.018,360.949l-13.242,10.47l7.349,0.46l-6.308,5.644c-3.391-6.747-9.811-10.484-17.898-10.484
	c-11.408,0-20.656,9.18-20.656,20.588c0,11.41,9.249,20.624,20.656,20.624c11.409,0,20.657-9.137,20.657-20.546
	c0-1.626-0.457-3.412-0.811-5.1l13.316-13.635l-6.494-0.319L123.018,360.949z M109.718,395.46H76.12
	c-1.147-2.248-1.792-5.099-1.792-7.951c0-0.74,0.049-1.044,0.132-2.169h36.917c0.084,1.124,0.131,1.429,0.131,2.169
	C111.509,390.361,110.866,393.212,109.718,395.46z"/>
<circle fill="#FFFFFF" cx="152.866" cy="382.007" r="3.149"/>
<circle fill="#FFFFFF" cx="165.838" cy="382.099" r="3.149"/>
<path fill="#FFFFFF" d="M189.685,353.012l-13.242,10.47l7.349,0.46l-6.308,5.644c-3.391-6.747-9.811-10.484-17.898-10.484
	c-11.408,0-20.656,9.18-20.656,20.588c0,11.41,9.249,20.624,20.656,20.624c11.409,0,20.657-9.137,20.657-20.546
	c0-1.626-0.457-3.412-0.811-5.1l13.316-13.635l-6.494-0.319L189.685,353.012z M176.385,387.524h-33.599
	c-1.147-2.248-1.792-5.099-1.792-7.951c0-0.74,0.049-1.044,0.132-2.169h36.917c0.084,1.124,0.131,1.429,0.131,2.169
	C178.176,382.424,177.533,385.276,176.385,387.524z"/>
<circle fill="#FFFFFF" cx="222.656" cy="380.202" r="3.149"/>
<circle fill="#FFFFFF" cx="235.628" cy="380.294" r="3.149"/>
<path fill="#FFFFFF" d="M259.475,351.208l-13.242,10.47l7.349,0.46l-6.308,5.644c-3.391-6.747-9.811-10.484-17.898-10.484
	c-11.408,0-20.656,9.18-20.656,20.588c0,11.41,9.249,20.624,20.656,20.624c11.409,0,20.657-9.137,20.657-20.546
	c0-1.626-0.457-3.412-0.811-5.1l13.316-13.635l-6.494-0.319L259.475,351.208z M246.175,385.719h-33.599
	c-1.147-2.248-1.792-5.099-1.792-7.951c0-0.74,0.049-1.044,0.132-2.169h36.917c0.084,1.124,0.131,1.429,0.131,2.169
	C247.966,380.62,247.323,383.471,246.175,385.719z"/>
<circle fill="#FFFFFF" cx="288.735" cy="380.202" r="3.149"/>
<circle fill="#FFFFFF" cx="301.708" cy="380.293" r="3.149"/>
<path fill="#FFFFFF" d="M325.554,351.207l-13.242,10.47l7.349,0.46l-6.308,5.644c-3.391-6.747-9.811-10.484-17.898-10.484
	c-11.408,0-20.656,9.18-20.656,20.588c0,11.411,9.249,20.624,20.656,20.624c11.409,0,20.657-9.137,20.657-20.545
	c0-1.626-0.457-3.412-0.811-5.1l13.316-13.635l-6.494-0.319L325.554,351.207z M312.255,385.718h-33.599
	c-1.147-2.248-1.792-5.098-1.792-7.951c0-0.74,0.049-1.044,0.132-2.169h36.917c0.084,1.124,0.131,1.429,0.131,2.169
	C314.046,380.619,313.403,383.471,312.255,385.718z"/>
<circle fill="#FFFFFF" cx="333.18" cy="321.471" r="3.149"/>
<circle fill="#FFFFFF" cx="346.152" cy="321.563" r="3.149"/>
<path fill="#8DC63F" d="M369.999,292.477l-13.242,10.47l7.349,0.46l-6.308,5.644c-3.391-6.747-9.811-10.484-17.898-10.484
	c-11.408,0-20.656,9.18-20.656,20.588c0,11.411,9.249,20.624,20.656,20.624c11.409,0,20.657-9.137,20.657-20.545
	c0-1.626-0.457-3.412-0.811-5.1l13.316-13.635l-6.494-0.319L369.999,292.477z M356.699,326.988h-33.599
	c-1.147-2.248-1.792-5.098-1.792-7.951c0-0.74,0.049-1.044,0.132-2.169h36.917c0.084,1.124,0.131,1.429,0.131,2.169
	C358.49,321.889,357.847,324.74,356.699,326.988z"/>
<circle fill="#FFFFFF" cx="254.528" cy="315.122" r="3.149"/>
<circle fill="#FFFFFF" cx="267.5" cy="315.214" r="3.149"/>
<path fill="#8DC63F" d="M291.347,286.127l-13.242,10.47l7.349,0.46l-6.308,5.644c-3.391-6.747-9.811-10.484-17.898-10.484
	c-11.408,0-20.656,9.18-20.656,20.588c0,11.411,9.249,20.624,20.656,20.624c11.409,0,20.657-9.137,20.657-20.545
	c0-1.626-0.457-3.412-0.811-5.1l13.316-13.635l-6.494-0.319L291.347,286.127z M278.048,320.639h-33.599
	c-1.147-2.248-1.792-5.098-1.792-7.951c0-0.74,0.049-1.044,0.132-2.169h36.917c0.084,1.124,0.131,1.429,0.131,2.169
	C279.839,315.54,279.196,318.391,278.048,320.639z"/>
<circle fill="#FFFFFF" cx="102.321" cy="323.759" r="3.149"/>
<circle fill="#FFFFFF" cx="115.293" cy="323.851" r="3.149"/>
<path fill="#FFFFFF" d="M139.14,294.764l-13.242,10.47l7.349,0.46l-6.308,5.644c-3.391-6.747-9.811-10.484-17.898-10.484
	c-11.408,0-20.656,9.18-20.656,20.588c0,11.411,9.249,20.624,20.656,20.624c11.409,0,20.657-9.137,20.657-20.545
	c0-1.626-0.457-3.412-0.811-5.1l13.316-13.635l-6.494-0.319L139.14,294.764z M125.84,329.275H92.242
	c-1.147-2.248-1.792-5.098-1.792-7.951c0-0.74,0.049-1.044,0.132-2.169H127.5c0.084,1.124,0.131,1.429,0.131,2.169
	C127.631,324.176,126.988,327.028,125.84,329.275z"/>
<circle fill="#FFFFFF" cx="179.775" cy="315.122" r="3.149"/>
<circle fill="#FFFFFF" cx="192.747" cy="315.214" r="3.149"/>
<path fill="#FFFFFF" d="M216.594,286.127l-13.242,10.47l7.349,0.46l-6.308,5.644c-3.391-6.747-9.811-10.484-17.898-10.484
	c-11.408,0-20.656,9.18-20.656,20.588c0,11.411,9.249,20.624,20.656,20.624c11.409,0,20.657-9.137,20.657-20.545
	c0-1.626-0.457-3.412-0.811-5.1l13.316-13.635l-6.494-0.319L216.594,286.127z M203.294,320.639h-33.599
	c-1.147-2.248-1.792-5.098-1.792-7.951c0-0.74,0.049-1.044,0.132-2.169h36.917c0.084,1.124,0.131,1.429,0.131,2.169
	C205.085,315.54,204.442,318.391,203.294,320.639z"/>
<circle fill="#FFFFFF" cx="129.105" cy="267.822" r="3.149"/>
<circle fill="#FFFFFF" cx="142.078" cy="267.914" r="3.149"/>
<path fill="#FFFFFF" d="M165.924,238.827l-13.242,10.47l7.349,0.46l-6.308,5.644c-3.391-6.747-9.811-10.484-17.898-10.484
	c-11.408,0-20.656,9.18-20.656,20.588c0,11.411,9.249,20.624,20.656,20.624c11.409,0,20.657-9.137,20.657-20.545
	c0-1.626-0.457-3.412-0.811-5.1l13.316-13.635l-6.494-0.319L165.924,238.827z M152.625,273.338h-33.599
	c-1.147-2.248-1.792-5.098-1.792-7.951c0-0.74,0.049-1.044,0.132-2.169h36.917c0.084,1.124,0.131,1.429,0.131,2.169
	C154.416,268.239,153.773,271.091,152.625,273.338z"/>
<circle fill="#FFFFFF" cx="299.56" cy="262.357" r="3.149"/>
<circle fill="#FFFFFF" cx="312.532" cy="262.449" r="3.149"/>
<path fill="#8DC63F" d="M336.378,233.363l-13.242,10.47l7.349,0.46l-6.308,5.644c-3.391-6.747-9.811-10.484-17.898-10.484
	c-11.408,0-20.656,9.18-20.656,20.588c0,11.411,9.249,20.624,20.656,20.624c11.409,0,20.657-9.137,20.657-20.545
	c0-1.626-0.457-3.412-0.811-5.1l13.316-13.635l-6.494-0.319L336.378,233.363z M323.079,267.874H289.48
	c-1.147-2.248-1.792-5.098-1.792-7.951c0-0.74,0.049-1.044,0.132-2.169h36.917c0.084,1.124,0.131,1.429,0.131,2.169
	C324.87,262.775,324.227,265.626,323.079,267.874z"/>
<circle fill="#FFFFFF" cx="216.506" cy="254.921" r="3.149"/>
<circle fill="#FFFFFF" cx="229.479" cy="255.013" r="3.149"/>
<path fill="#8DC63F" d="M253.325,225.926l-13.242,10.47l7.349,0.46l-6.308,5.644c-3.391-6.747-9.811-10.484-17.898-10.484
	c-11.408,0-20.656,9.18-20.656,20.588c0,11.411,9.249,20.624,20.656,20.624c11.409,0,20.657-9.137,20.657-20.545
	c0-1.626-0.457-3.412-0.811-5.1l13.316-13.635l-6.494-0.319L253.325,225.926z M240.026,260.438h-33.599
	c-1.147-2.248-1.792-5.098-1.792-7.951c0-0.74,0.049-1.044,0.132-2.169h36.917c0.084,1.124,0.131,1.429,0.131,2.169
	C241.817,255.338,241.174,258.19,240.026,260.438z"/>
<circle fill="#FFFFFF" cx="165.653" cy="216.057" r="3.149"/>
<circle fill="#FFFFFF" cx="178.625" cy="216.149" r="3.149"/>
<path fill="#8DC63F" d="M202.472,187.062l-13.242,10.47l7.349,0.46l-6.308,5.644c-3.391-6.747-9.811-10.484-17.898-10.484
	c-11.408,0-20.656,9.18-20.656,20.588c0,11.411,9.249,20.624,20.656,20.624c11.409,0,20.657-9.137,20.657-20.545
	c0-1.626-0.457-3.412-0.811-5.1l13.316-13.635l-6.494-0.319L202.472,187.062z M189.172,221.574h-33.599
	c-1.147-2.248-1.792-5.098-1.792-7.951c0-0.74,0.049-1.044,0.132-2.169h36.917c0.084,1.124,0.131,1.429,0.131,2.169
	C190.963,216.475,190.32,219.326,189.172,221.574z"/>
<circle fill="#FFFFFF" cx="266.501" cy="203.621" r="3.149"/>
<circle fill="#FFFFFF" cx="279.473" cy="203.712" r="3.149"/>
<path fill="#8DC63F" d="M303.32,174.626l-13.242,10.47l7.349,0.46l-6.308,5.644c-3.391-6.747-9.811-10.484-17.898-10.484
	c-11.408,0-20.656,9.18-20.656,20.588c0,11.411,9.249,20.624,20.656,20.624c11.409,0,20.657-9.137,20.657-20.545
	c0-1.626-0.457-3.412-0.811-5.1l13.316-13.635l-6.494-0.319L303.32,174.626z M290.021,209.137h-33.599
	c-1.147-2.248-1.792-5.098-1.792-7.951c0-0.74,0.049-1.044,0.132-2.169h36.917c0.084,1.124,0.131,1.429,0.131,2.169
	C291.812,204.038,291.168,206.89,290.021,209.137z"/>
<circle fill="#FFFFFF" cx="358.089" cy="220.402" r="3.149"/>
<circle fill="#FFFFFF" cx="371.061" cy="220.494" r="3.149"/>
<path fill="#8DC63F" d="M394.908,191.407l-13.242,10.47l7.349,0.46l-6.308,5.644c-3.391-6.747-9.811-10.484-17.898-10.484
	c-11.408,0-20.656,9.18-20.656,20.588c0,11.411,9.249,20.624,20.656,20.624c11.409,0,20.657-9.137,20.657-20.545
	c0-1.626-0.457-3.412-0.811-5.1l13.316-13.635l-6.494-0.319L394.908,191.407z M381.608,225.918H348.01
	c-1.147-2.248-1.792-5.098-1.792-7.951c0-0.74,0.049-1.044,0.132-2.169h36.917c0.084,1.124,0.131,1.429,0.131,2.169
	C383.399,220.819,382.756,223.671,381.608,225.918z"/>
<circle fill="#FFFFFF" cx="392.752" cy="276.407" r="3.149"/>
<circle fill="#FFFFFF" cx="405.725" cy="276.499" r="3.149"/>
<path fill="#8DC63F" d="M429.571,247.412l-13.242,10.47l7.349,0.46l-6.308,5.644c-3.391-6.747-9.811-10.484-17.898-10.484
	c-11.408,0-20.656,9.18-20.656,20.588c0,11.411,9.249,20.624,20.656,20.624c11.409,0,20.657-9.137,20.657-20.545
	c0-1.626-0.457-3.412-0.811-5.1l13.316-13.635l-6.494-0.319L429.571,247.412z M416.272,281.923h-33.599
	c-1.147-2.248-1.792-5.098-1.792-7.951c0-0.74,0.049-1.044,0.132-2.169h36.917c0.084,1.124,0.131,1.429,0.131,2.169
	C418.063,276.824,417.42,279.676,416.272,281.923z"/>
<circle fill="#FFFFFF" cx="326.469" cy="163.874" r="3.149"/>
<circle fill="#FFFFFF" cx="339.441" cy="163.965" r="3.149"/>
<path fill="#8DC63F" d="M363.288,134.879l-13.242,10.47l7.349,0.46l-6.308,5.644c-3.391-6.747-9.811-10.484-17.898-10.484
	c-11.408,0-20.656,9.18-20.656,20.588c0,11.411,9.249,20.624,20.656,20.624c11.409,0,20.657-9.137,20.657-20.545
	c0-1.626-0.457-3.412-0.811-5.1l13.316-13.635l-6.494-0.319L363.288,134.879z M349.988,169.39H316.39
	c-1.147-2.248-1.792-5.098-1.792-7.951c0-0.74,0.049-1.044,0.132-2.169h36.917c0.084,1.124,0.131,1.429,0.131,2.169
	C351.779,164.291,351.136,167.143,349.988,169.39z"/>
<circle fill="#FFFFFF" cx="206.684" cy="169.218" r="3.149"/>
<circle fill="#FFFFFF" cx="219.656" cy="169.31" r="3.149"/>
<path fill="#8DC63F" d="M243.503,140.224l-13.242,10.47l7.349,0.46l-6.308,5.644c-3.391-6.747-9.811-10.484-17.898-10.484
	c-11.408,0-20.656,9.18-20.656,20.588c0,11.411,9.249,20.624,20.656,20.624c11.409,0,20.657-9.137,20.657-20.545
	c0-1.626-0.457-3.412-0.811-5.1l13.316-13.635l-6.494-0.319L243.503,140.224z M230.204,174.735h-33.599
	c-1.147-2.248-1.792-5.098-1.792-7.951c0-0.74,0.049-1.044,0.132-2.169h36.917c0.084,1.124,0.131,1.429,0.131,2.169
	C231.995,169.636,231.352,172.487,230.204,174.735z"/>
<circle fill="#FFFFFF" cx="256.677" cy="129.218" r="3.149"/>
<circle fill="#FFFFFF" cx="269.649" cy="129.31" r="3.149"/>
<path fill="#8DC63F" d="M293.496,100.224l-13.242,10.47l7.349,0.46l-6.308,5.644c-3.391-6.747-9.811-10.484-17.898-10.484
	c-11.408,0-20.656,9.18-20.656,20.588c0,11.411,9.249,20.624,20.656,20.624c11.409,0,20.657-9.137,20.657-20.545
	c0-1.626-0.457-3.412-0.811-5.1l13.316-13.635l-6.494-0.319L293.496,100.224z M280.196,134.735h-33.599
	c-1.147-2.248-1.792-5.098-1.792-7.951c0-0.74,0.049-1.044,0.132-2.169h36.917c0.084,1.124,0.131,1.429,0.131,2.169
	C281.987,129.636,281.344,132.487,280.196,134.735z"/>
<circle fill="#FFFFFF" cx="310.347" cy="96.218" r="3.149"/>
<circle fill="#FFFFFF" cx="323.319" cy="96.31" r="3.149"/>
<path fill="#8DC63F" d="M347.166,67.224l-13.242,10.47l7.349,0.46l-6.308,5.644c-3.391-6.747-9.811-10.484-17.898-10.484
	c-11.408,0-20.656,9.18-20.656,20.588c0,11.411,9.249,20.624,20.656,20.624c11.409,0,20.657-9.137,20.657-20.545
	c0-1.626-0.457-3.412-0.811-5.1l13.316-13.635l-6.494-0.319L347.166,67.224z M333.866,101.735h-33.599
	c-1.147-2.248-1.792-5.098-1.792-7.951c0-0.74,0.049-1.044,0.132-2.169h36.917c0.084,1.124,0.131,1.429,0.131,2.169
	C335.657,96.636,335.014,99.487,333.866,101.735z"/>
<circle fill="#FFFFFF" cx="368.876" cy="72.568" r="3.149"/>
<circle fill="#FFFFFF" cx="381.848" cy="72.66" r="3.149"/>
<path fill="#00AEEF" d="M405.695,43.573l-13.242,10.47l7.349,0.46l-6.308,5.644c-3.391-6.747-9.811-10.484-17.898-10.484
	c-11.408,0-20.656,9.18-20.656,20.588c0,11.411,9.249,20.624,20.656,20.624c11.409,0,20.657-9.137,20.657-20.545
	c0-1.626-0.457-3.412-0.811-5.1l13.316-13.635l-6.494-0.319L405.695,43.573z M392.396,78.084h-33.599
	c-1.147-2.248-1.792-5.098-1.792-7.951c0-0.74,0.049-1.044,0.132-2.169h36.917c0.084,1.124,0.131,1.429,0.131,2.169
	C394.187,72.985,393.543,75.837,392.396,78.084z"/>
<circle fill="#FFFFFF" cx="494.967" cy="57.411" r="3.149"/>
<circle fill="#FFFFFF" cx="507.939" cy="57.503" r="3.149"/>
<path fill="#00AEEF" d="M531.785,28.417l-13.242,10.47l7.35,0.46l-6.308,5.644c-3.392-6.747-9.811-10.484-17.898-10.484
	c-11.408,0-20.656,9.18-20.656,20.588c0,11.411,9.249,20.624,20.656,20.624c11.409,0,20.657-9.137,20.657-20.545
	c0-1.626-0.457-3.412-0.811-5.1l13.315-13.635l-6.493-0.319L531.785,28.417z M518.486,62.928h-33.599
	c-1.147-2.248-1.792-5.098-1.792-7.951c0-0.74,0.049-1.044,0.132-2.169h36.917c0.084,1.124,0.132,1.429,0.132,2.169
	C520.277,57.829,519.635,60.68,518.486,62.928z"/>
<circle fill="#FFFFFF" cx="558.967" cy="61.848" r="3.149"/>
<circle fill="#FFFFFF" cx="571.939" cy="61.939" r="3.149"/>
<path fill="#00AEEF" d="M595.785,32.853l-13.242,10.47l7.35,0.46l-6.308,5.644c-3.392-6.747-9.811-10.484-17.898-10.484
	c-11.407,0-20.656,9.18-20.656,20.588c0,11.411,9.249,20.624,20.656,20.624c11.409,0,20.657-9.137,20.657-20.545
	c0-1.626-0.457-3.412-0.811-5.1l13.315-13.635l-6.493-0.319L595.785,32.853z M582.486,67.364h-33.599
	c-1.147-2.248-1.792-5.098-1.792-7.951c0-0.74,0.049-1.044,0.133-2.169h36.917c0.084,1.124,0.132,1.429,0.132,2.169
	C584.277,62.265,583.635,65.117,582.486,67.364z"/>
<circle fill="#FFFFFF" cx="620.967" cy="75.912" r="3.149"/>
<circle fill="#FFFFFF" cx="633.939" cy="76.004" r="3.149"/>
<path fill="#00AEEF" d="M657.785,46.917l-13.242,10.47l7.35,0.46l-6.308,5.644c-3.392-6.747-9.811-10.484-17.898-10.484
	c-11.407,0-20.656,9.18-20.656,20.588c0,11.411,9.249,20.624,20.656,20.624c11.409,0,20.657-9.137,20.657-20.545
	c0-1.626-0.457-3.412-0.811-5.1l13.315-13.635l-6.493-0.319L657.785,46.917z M644.486,81.429h-33.599
	c-1.147-2.248-1.792-5.098-1.792-7.951c0-0.74,0.049-1.044,0.133-2.169h36.917c0.084,1.124,0.132,1.429,0.132,2.169
	C646.277,76.33,645.635,79.181,644.486,81.429z"/>
<circle fill="#FFFFFF" cx="680.967" cy="98.414" r="3.149"/>
<circle fill="#FFFFFF" cx="693.939" cy="98.506" r="3.149"/>
<path fill="#00AEEF" d="M717.785,69.419l-13.242,10.47l7.35,0.46l-6.308,5.644c-3.392-6.747-9.811-10.484-17.898-10.484
	c-11.407,0-20.656,9.18-20.656,20.588c0,11.411,9.249,20.624,20.656,20.624c11.409,0,20.657-9.137,20.657-20.545
	c0-1.626-0.457-3.412-0.811-5.1l13.315-13.635l-6.493-0.319L717.785,69.419z M704.486,103.931h-33.599
	c-1.147-2.248-1.792-5.098-1.792-7.951c0-0.74,0.049-1.044,0.133-2.169h36.917c0.084,1.124,0.132,1.429,0.132,2.169
	C706.277,98.832,705.635,101.683,704.486,103.931z"/>
<circle fill="#FFFFFF" cx="734.785" cy="131.414" r="3.149"/>
<circle fill="#FFFFFF" cx="747.758" cy="131.506" r="3.149"/>
<path fill="#00AEEF" d="M771.604,102.419l-13.242,10.47l7.35,0.46l-6.308,5.644c-3.392-6.747-9.811-10.484-17.898-10.484
	c-11.407,0-20.656,9.18-20.656,20.588c0,11.411,9.249,20.624,20.656,20.624c11.409,0,20.657-9.137,20.657-20.545
	c0-1.626-0.457-3.412-0.811-5.1l13.315-13.635l-6.493-0.319L771.604,102.419z M758.305,136.931h-33.599
	c-1.147-2.248-1.792-5.098-1.792-7.951c0-0.74,0.049-1.044,0.133-2.169h36.917c0.084,1.124,0.132,1.429,0.132,2.169
	C760.096,131.832,759.453,134.683,758.305,136.931z"/>
<circle fill="#FFFFFF" cx="782.785" cy="171.414" r="3.149"/>
<circle fill="#FFFFFF" cx="795.758" cy="171.506" r="3.149"/>
<path fill="#FFEC00" d="M819.604,142.419l-13.242,10.47l7.35,0.46l-6.308,5.644c-3.392-6.747-9.811-10.484-17.898-10.484
	c-11.407,0-20.656,9.18-20.656,20.588c0,11.411,9.249,20.624,20.656,20.624c11.409,0,20.657-9.137,20.657-20.545
	c0-1.626-0.457-3.412-0.811-5.1l13.315-13.635l-6.493-0.319L819.604,142.419z M806.305,176.931h-33.599
	c-1.147-2.248-1.792-5.098-1.792-7.951c0-0.74,0.049-1.044,0.133-2.169h36.917c0.084,1.124,0.132,1.429,0.132,2.169
	C808.096,171.832,807.453,174.683,806.305,176.931z"/>
<circle fill="#FFFFFF" cx="825.785" cy="216.058" r="3.149"/>
<circle fill="#FFFFFF" cx="838.758" cy="216.149" r="3.149"/>
<path fill="#FFEC00" d="M862.604,187.063l-13.242,10.47l7.35,0.46l-6.308,5.644c-3.392-6.747-9.811-10.484-17.898-10.484
	c-11.407,0-20.656,9.18-20.656,20.588c0,11.411,9.249,20.624,20.656,20.624c11.409,0,20.657-9.137,20.657-20.545
	c0-1.626-0.457-3.412-0.811-5.1l13.315-13.635l-6.493-0.319L862.604,187.063z M849.305,221.574h-33.599
	c-1.147-2.248-1.792-5.098-1.792-7.951c0-0.74,0.049-1.044,0.133-2.169h36.917c0.084,1.124,0.132,1.429,0.132,2.169
	C851.096,216.475,850.453,219.327,849.305,221.574z"/>
<circle fill="#FFFFFF" cx="863.785" cy="270.018" r="3.149"/>
<circle fill="#FFFFFF" cx="876.758" cy="270.109" r="3.149"/>
<path fill="#FFEC00" d="M900.604,241.023l-13.242,10.47l7.35,0.46l-6.308,5.644c-3.392-6.747-9.811-10.484-17.898-10.484
	c-11.407,0-20.656,9.18-20.656,20.588c0,11.411,9.249,20.624,20.656,20.624c11.409,0,20.657-9.137,20.657-20.545
	c0-1.626-0.457-3.412-0.811-5.1l13.315-13.635l-6.493-0.319L900.604,241.023z M887.305,275.534h-33.599
	c-1.147-2.248-1.792-5.098-1.792-7.951c0-0.74,0.049-1.044,0.133-2.169h36.917c0.084,1.124,0.132,1.429,0.132,2.169
	C889.096,270.435,888.453,273.287,887.305,275.534z"/>
<circle fill="#FFFFFF" cx="772.961" cy="254.921" r="3.149"/>
<circle fill="#FFFFFF" cx="785.934" cy="255.013" r="3.149"/>
<path fill="#FFEC00" d="M809.779,225.926l-13.242,10.47l7.35,0.46l-6.308,5.644c-3.392-6.747-9.811-10.484-17.898-10.484
	c-11.407,0-20.656,9.18-20.656,20.588c0,11.411,9.249,20.624,20.656,20.624c11.409,0,20.657-9.137,20.657-20.545
	c0-1.626-0.457-3.412-0.811-5.1l13.315-13.635l-6.493-0.319L809.779,225.926z M796.48,260.438h-33.599
	c-1.147-2.248-1.792-5.098-1.792-7.951c0-0.74,0.049-1.044,0.133-2.169h36.917c0.084,1.124,0.132,1.429,0.132,2.169
	C798.271,255.338,797.629,258.19,796.48,260.438z"/>
<circle fill="#FFFFFF" cx="724.961" cy="203.621" r="3.149"/>
<circle fill="#FFFFFF" cx="737.934" cy="203.713" r="3.149"/>
<path fill="#FFEC00" d="M761.779,174.626l-13.242,10.47l7.35,0.46l-6.308,5.644c-3.392-6.747-9.811-10.484-17.898-10.484
	c-11.407,0-20.656,9.18-20.656,20.588c0,11.411,9.249,20.624,20.656,20.624c11.409,0,20.657-9.137,20.657-20.545
	c0-1.626-0.457-3.412-0.811-5.1l13.315-13.635l-6.493-0.319L761.779,174.626z M748.48,209.138h-33.599
	c-1.147-2.248-1.792-5.098-1.792-7.951c0-0.74,0.049-1.044,0.133-2.169h36.917c0.084,1.124,0.132,1.429,0.132,2.169
	C750.271,204.039,749.629,206.89,748.48,209.138z"/>
<circle fill="#FFFFFF" cx="664.845" cy="166.161" r="3.149"/>
<circle fill="#FFFFFF" cx="677.817" cy="166.253" r="3.149"/>
<path fill="#00AEEF" d="M701.663,137.167l-13.242,10.47l7.35,0.46l-6.308,5.644c-3.392-6.747-9.811-10.484-17.898-10.484
	c-11.407,0-20.656,9.18-20.656,20.588c0,11.411,9.249,20.624,20.656,20.624c11.409,0,20.657-9.137,20.657-20.545
	c0-1.626-0.457-3.412-0.811-5.1l13.315-13.635l-6.493-0.319L701.663,137.167z M688.364,171.678h-33.599
	c-1.147-2.248-1.792-5.098-1.792-7.951c0-0.74,0.049-1.044,0.133-2.169h36.917c0.084,1.124,0.132,1.429,0.132,2.169
	C690.155,166.579,689.513,169.43,688.364,171.678z"/>
<circle fill="#FFFFFF" cx="600.206" cy="137.654" r="3.149"/>
<circle fill="#FFFFFF" cx="613.179" cy="137.746" r="3.149"/>
<path fill="#00AEEF" d="M637.024,108.66l-13.242,10.47l7.35,0.46l-6.308,5.644c-3.392-6.747-9.811-10.484-17.898-10.484
	c-11.407,0-20.656,9.18-20.656,20.588c0,11.411,9.249,20.624,20.656,20.624c11.409,0,20.657-9.137,20.657-20.545
	c0-1.626-0.457-3.412-0.811-5.1l13.315-13.635l-6.493-0.319L637.024,108.66z M623.726,143.171h-33.599
	c-1.147-2.248-1.792-5.098-1.792-7.951c0-0.74,0.049-1.044,0.133-2.169h36.917c0.084,1.124,0.132,1.429,0.132,2.169
	C625.517,138.072,624.874,140.923,623.726,143.171z"/>
<circle fill="#FFFFFF" cx="532.058" cy="122.064" r="3.149"/>
<circle fill="#FFFFFF" cx="545.03" cy="122.156" r="3.149"/>
<path fill="#00AEEF" d="M568.876,93.07l-13.242,10.47l7.35,0.46l-6.308,5.644c-3.392-6.747-9.811-10.484-17.898-10.484
	c-11.407,0-20.656,9.18-20.656,20.588c0,11.411,9.249,20.624,20.656,20.624c11.409,0,20.657-9.137,20.657-20.545
	c0-1.626-0.457-3.412-0.811-5.1l13.315-13.635l-6.493-0.319L568.876,93.07z M555.577,127.581h-33.599
	c-1.147-2.248-1.792-5.098-1.792-7.951c0-0.74,0.049-1.044,0.133-2.169h36.917c0.084,1.124,0.132,1.429,0.132,2.169
	C557.368,122.482,556.726,125.333,555.577,127.581z"/>
<circle fill="#FFFFFF" cx="459.785" cy="122.064" r="3.149"/>
<circle fill="#FFFFFF" cx="472.758" cy="122.156" r="3.149"/>
<path fill="#00AEEF" d="M496.604,93.07l-13.242,10.47l7.35,0.46l-6.308,5.644c-3.392-6.747-9.811-10.484-17.898-10.484
	c-11.407,0-20.656,9.18-20.656,20.588c0,11.411,9.249,20.624,20.656,20.624c11.409,0,20.657-9.137,20.657-20.545
	c0-1.626-0.457-3.412-0.811-5.1l13.315-13.635l-6.493-0.319L496.604,93.07z M483.305,127.581h-33.599
	c-1.147-2.248-1.792-5.098-1.792-7.951c0-0.74,0.049-1.044,0.133-2.169h36.917c0.084,1.124,0.132,1.429,0.132,2.169
	C485.096,122.482,484.453,125.333,483.305,127.581z"/>
<circle fill="#FFFFFF" cx="389.603" cy="136.851" r="3.149"/>
<circle fill="#FFFFFF" cx="402.576" cy="136.942" r="3.149"/>
<path fill="#00AEEF" d="M426.421,107.856l-13.242,10.47l7.35,0.46l-6.308,5.644c-3.392-6.747-9.811-10.484-17.898-10.484
	c-11.407,0-20.656,9.18-20.656,20.588c0,11.411,9.249,20.624,20.656,20.624c11.409,0,20.657-9.137,20.657-20.545
	c0-1.626-0.457-3.412-0.811-5.1l13.315-13.635l-6.493-0.319L426.421,107.856z M413.123,142.367h-33.599
	c-1.147-2.248-1.792-5.098-1.792-7.951c0-0.74,0.049-1.044,0.133-2.169h36.917c0.084,1.124,0.132,1.429,0.132,2.169
	C414.914,137.268,414.271,140.12,413.123,142.367z"/>
<circle fill="#FFFFFF" cx="424.727" cy="194.064" r="3.149"/>
<circle fill="#FFFFFF" cx="437.699" cy="194.156" r="3.149"/>
<path fill="#00AEEF" d="M461.545,165.07l-13.242,10.47l7.35,0.46l-6.308,5.644c-3.392-6.747-9.811-10.484-17.898-10.484
	c-11.407,0-20.656,9.18-20.656,20.588c0,11.411,9.249,20.624,20.656,20.624c11.409,0,20.657-9.137,20.657-20.545
	c0-1.626-0.457-3.412-0.811-5.1l13.315-13.635l-6.493-0.319L461.545,165.07z M448.246,199.581h-33.599
	c-1.147-2.248-1.792-5.098-1.792-7.951c0-0.74,0.049-1.044,0.133-2.169h36.917c0.084,1.124,0.132,1.429,0.132,2.169
	C450.037,194.482,449.395,197.333,448.246,199.581z"/>
<circle fill="#FFFFFF" cx="459.785" cy="251.921" r="3.149"/>
<circle fill="#FFFFFF" cx="472.758" cy="252.013" r="3.149"/>
<path fill="#00AEEF" d="M496.604,222.926l-13.242,10.47l7.35,0.46l-6.308,5.644c-3.392-6.747-9.811-10.484-17.898-10.484
	c-11.407,0-20.656,9.18-20.656,20.588c0,11.411,9.249,20.624,20.656,20.624c11.409,0,20.657-9.137,20.657-20.545
	c0-1.626-0.457-3.412-0.811-5.1l13.315-13.635l-6.493-0.319L496.604,222.926z M483.305,257.438h-33.599
	c-1.147-2.248-1.792-5.098-1.792-7.951c0-0.74,0.049-1.044,0.133-2.169h36.917c0.084,1.124,0.132,1.429,0.132,2.169
	C485.096,252.338,484.453,255.19,483.305,257.438z"/>
<circle fill="#FFFFFF" cx="496.116" cy="184.524" r="3.149"/>
<circle fill="#FFFFFF" cx="509.088" cy="184.616" r="3.149"/>
<path fill="#00AEEF" d="M532.934,155.53L519.691,166l7.35,0.46l-6.307,5.644c-3.393-6.747-9.811-10.484-17.898-10.484
	c-11.408,0-20.657,9.18-20.657,20.588c0,11.411,9.249,20.624,20.657,20.624c11.408,0,20.656-9.137,20.656-20.545
	c0-1.626-0.457-3.412-0.811-5.1l13.316-13.635l-6.494-0.319L532.934,155.53z M519.635,190.041h-33.598
	c-1.147-2.248-1.792-5.098-1.792-7.951c0-0.74,0.049-1.044,0.133-2.169h36.917c0.084,1.124,0.131,1.429,0.131,2.169
	C521.426,184.942,520.783,187.793,519.635,190.041z"/>
<circle fill="#FFFFFF" cx="566.115" cy="195.109" r="3.149"/>
<circle fill="#FFFFFF" cx="579.088" cy="195.201" r="3.149"/>
<path fill="#00AEEF" d="M602.934,166.115l-13.242,10.47l7.35,0.46l-6.307,5.644c-3.393-6.747-9.811-10.484-17.898-10.484
	c-11.408,0-20.656,9.18-20.656,20.588c0,11.411,9.248,20.624,20.656,20.624s20.656-9.137,20.656-20.545
	c0-1.626-0.457-3.412-0.811-5.1l13.316-13.635l-6.494-0.319L602.934,166.115z M589.635,200.626h-33.598
	c-1.148-2.248-1.793-5.098-1.793-7.951c0-0.74,0.049-1.044,0.133-2.169h36.918c0.084,1.124,0.131,1.429,0.131,2.169
	C591.426,195.527,590.783,198.378,589.635,200.626z"/>
<circle fill="#FFFFFF" cx="600.205" cy="276.315" r="3.149"/>
<circle fill="#FFFFFF" cx="613.178" cy="276.407" r="3.149"/>
<path fill="#FFF200" d="M637.023,247.321l-13.242,10.47l7.35,0.46l-6.307,5.644c-3.393-6.747-9.811-10.484-17.898-10.484
	c-11.408,0-20.656,9.18-20.656,20.588c0,11.411,9.248,20.624,20.656,20.624s20.656-9.137,20.656-20.545
	c0-1.626-0.457-3.412-0.811-5.1l13.316-13.635l-6.494-0.319L637.023,247.321z M623.725,281.832h-33.598
	c-1.148-2.248-1.793-5.098-1.793-7.951c0-0.74,0.049-1.044,0.133-2.169h36.918c0.084,1.124,0.131,1.429,0.131,2.169
	C625.516,276.733,624.873,279.584,623.725,281.832z"/>
<circle fill="#FFFFFF" cx="532.057" cy="252.757" r="3.149"/>
<circle fill="#FFFFFF" cx="545.029" cy="252.849" r="3.149"/>
<path fill="#00AEEF" d="M568.875,223.762l-13.242,10.47l7.35,0.46l-6.307,5.644c-3.393-6.747-9.811-10.484-17.898-10.484
	c-11.408,0-20.656,9.18-20.656,20.588c0,11.411,9.248,20.624,20.656,20.624s20.656-9.137,20.656-20.545
	c0-1.626-0.457-3.412-0.811-5.1l13.316-13.635l-6.494-0.319L568.875,223.762z M555.576,258.273h-33.598
	c-1.148-2.248-1.793-5.098-1.793-7.951c0-0.74,0.049-1.044,0.133-2.169h36.918c0.084,1.124,0.131,1.429,0.131,2.169
	C557.367,253.174,556.725,256.026,555.576,258.273z"/>
<circle fill="#FFFFFF" cx="631.753" cy="220.402" r="3.149"/>
<circle fill="#FFFFFF" cx="644.726" cy="220.494" r="3.149"/>
<path fill="#FFEC00" d="M668.571,191.408l-13.242,10.47l7.35,0.46l-6.307,5.644c-3.393-6.747-9.811-10.484-17.898-10.484
	c-11.408,0-20.656,9.18-20.656,20.588c0,11.411,9.248,20.624,20.656,20.624s20.656-9.137,20.656-20.545
	c0-1.626-0.457-3.412-0.811-5.1l13.316-13.635l-6.494-0.319L668.571,191.408z M655.272,225.919h-33.598
	c-1.148-2.248-1.793-5.098-1.793-7.951c0-0.74,0.049-1.044,0.133-2.169h36.918c0.084,1.124,0.131,1.429,0.131,2.169
	C657.063,220.82,656.421,223.671,655.272,225.919z"/>
<circle fill="#FFFFFF" cx="691.753" cy="260.266" r="3.149"/>
<circle fill="#FFFFFF" cx="704.726" cy="260.357" r="3.149"/>
<path fill="#FFEC00" d="M728.571,231.271l-13.242,10.47l7.35,0.46l-6.307,5.644c-3.393-6.747-9.811-10.484-17.898-10.484
	c-11.408,0-20.656,9.18-20.656,20.588c0,11.411,9.248,20.624,20.656,20.624s20.656-9.137,20.656-20.545
	c0-1.626-0.457-3.412-0.811-5.1l13.316-13.635l-6.494-0.319L728.571,231.271z M715.272,265.782h-33.598
	c-1.148-2.248-1.793-5.098-1.793-7.951c0-0.74,0.049-1.044,0.133-2.169h36.918c0.084,1.124,0.131,1.429,0.131,2.169
	C717.063,260.683,716.421,263.535,715.272,265.782z"/>
<circle fill="#FFFFFF" cx="658.661" cy="320.467" r="3.149"/>
<circle fill="#FFFFFF" cx="671.634" cy="320.559" r="3.149"/>
<path fill="#FFF200" d="M695.479,291.472l-13.242,10.47l7.35,0.46l-6.307,5.644c-3.393-6.747-9.811-10.484-17.898-10.484
	c-11.408,0-20.656,9.18-20.656,20.588c0,11.411,9.248,20.624,20.656,20.624s20.656-9.137,20.656-20.545
	c0-1.626-0.457-3.412-0.811-5.1l13.316-13.635l-6.494-0.319L695.479,291.472z M682.181,325.983h-33.598
	c-1.148-2.248-1.793-5.098-1.793-7.951c0-0.74,0.049-1.044,0.133-2.169h36.918c0.084,1.124,0.131,1.429,0.131,2.169
	C683.972,320.884,683.329,323.736,682.181,325.983z"/>
<circle fill="#FFFFFF" cx="737.933" cy="315.122" r="3.149"/>
<circle fill="#FFFFFF" cx="750.905" cy="315.214" r="3.149"/>
<path fill="#FFF200" d="M774.751,286.127l-13.242,10.47l7.35,0.46l-6.307,5.644c-3.393-6.747-9.811-10.484-17.898-10.484
	c-11.408,0-20.656,9.18-20.656,20.588c0,11.411,9.248,20.624,20.656,20.624s20.656-9.137,20.656-20.545
	c0-1.626-0.457-3.412-0.811-5.1l13.316-13.635l-6.494-0.319L774.751,286.127z M761.452,320.639h-33.598
	c-1.148-2.248-1.793-5.098-1.793-7.951c0-0.74,0.049-1.044,0.133-2.169h36.918c0.084,1.124,0.131,1.429,0.131,2.169
	C763.243,315.54,762.601,318.391,761.452,320.639z"/>
<circle fill="#FFFFFF" cx="698.051" cy="382.007" r="3.149"/>
<circle fill="#FFFFFF" cx="711.023" cy="382.099" r="3.149"/>
<path fill="#FFF200" d="M734.869,353.013l-13.242,10.47l7.35,0.46l-6.307,5.644c-3.393-6.747-9.811-10.484-17.898-10.484
	c-11.408,0-20.656,9.18-20.656,20.588c0,11.411,9.248,20.624,20.656,20.624s20.656-9.137,20.656-20.545
	c0-1.626-0.457-3.412-0.811-5.1l13.316-13.635l-6.494-0.319L734.869,353.013z M721.57,387.524h-33.598
	c-1.148-2.248-1.793-5.098-1.793-7.951c0-0.74,0.049-1.044,0.133-2.169h36.918c0.084,1.124,0.131,1.429,0.131,2.169
	C723.361,382.425,722.719,385.276,721.57,387.524z"/>
<circle fill="#FFFFFF" cx="721.811" cy="451.482" r="3.148"/>
<circle fill="#FFFFFF" cx="734.783" cy="451.574" r="3.148"/>
<path fill="#FFF200" d="M758.629,422.488l-13.242,10.469l7.35,0.461l-6.307,5.643c-3.393-6.746-9.811-10.484-17.898-10.484
	c-11.408,0-20.656,9.18-20.656,20.588c0,11.411,9.248,20.624,20.656,20.624s20.656-9.137,20.656-20.546
	c0-1.625-0.457-3.412-0.811-5.1l13.316-13.635l-6.494-0.318L758.629,422.488z M745.33,456.999h-33.598
	c-1.148-2.247-1.793-5.099-1.793-7.95c0-0.74,0.049-1.045,0.133-2.17h36.918c0.084,1.125,0.131,1.43,0.131,2.17
	C747.121,451.9,746.479,454.751,745.33,456.999z"/>
<circle fill="#FFFFFF" cx="785.934" cy="451.482" r="3.148"/>
<circle fill="#FFFFFF" cx="798.906" cy="451.574" r="3.148"/>
<path fill="#FFF200" d="M822.752,422.488l-13.242,10.469l7.35,0.461l-6.307,5.643c-3.393-6.746-9.811-10.484-17.898-10.484
	c-11.408,0-20.656,9.18-20.656,20.588c0,11.411,9.248,20.624,20.656,20.624s20.656-9.137,20.656-20.546
	c0-1.625-0.457-3.412-0.811-5.1l13.316-13.635l-6.494-0.318L822.752,422.488z M809.453,456.999h-33.598
	c-1.148-2.247-1.793-5.099-1.793-7.95c0-0.74,0.049-1.045,0.133-2.17h36.918c0.084,1.125,0.131,1.43,0.131,2.17
	C811.244,451.9,810.602,454.751,809.453,456.999z"/>
<circle fill="#FFFFFF" cx="852.693" cy="451.482" r="3.148"/>
<circle fill="#FFFFFF" cx="865.666" cy="451.574" r="3.148"/>
<path fill="#FFEC00" d="M889.512,422.488l-13.242,10.469l7.35,0.461l-6.307,5.643c-3.393-6.746-9.811-10.484-17.898-10.484
	c-11.408,0-20.656,9.18-20.656,20.588c0,11.411,9.248,20.624,20.656,20.624s20.656-9.137,20.656-20.546
	c0-1.625-0.457-3.412-0.811-5.1l13.316-13.635l-6.494-0.318L889.512,422.488z M876.213,456.999h-33.598
	c-1.148-2.247-1.793-5.099-1.793-7.95c0-0.74,0.049-1.045,0.133-2.17h36.918c0.084,1.125,0.131,1.43,0.131,2.17
	C878.004,451.9,877.361,454.751,876.213,456.999z"/>
<circle fill="#FFFFFF" cx="919.006" cy="451.482" r="3.148"/>
<circle fill="#FFFFFF" cx="931.979" cy="451.574" r="3.148"/>
<path fill="#FFEC00" d="M955.824,422.488l-13.242,10.469l7.35,0.461l-6.307,5.643c-3.393-6.746-9.811-10.484-17.898-10.484
	c-11.408,0-20.656,9.18-20.656,20.588c0,11.411,9.248,20.624,20.656,20.624s20.656-9.137,20.656-20.546
	c0-1.625-0.457-3.412-0.811-5.1l13.316-13.635l-6.494-0.318L955.824,422.488z M942.525,456.999h-33.598
	c-1.148-2.247-1.793-5.099-1.793-7.95c0-0.74,0.049-1.045,0.133-2.17h36.918c0.084,1.125,0.131,1.43,0.131,2.17
	C944.316,451.9,943.674,454.751,942.525,456.999z"/>
<circle fill="#FFFFFF" cx="812.811" cy="315.123" r="3.149"/>
<circle fill="#FFFFFF" cx="825.783" cy="315.214" r="3.149"/>
<path fill="#FFF200" d="M849.629,286.128l-13.242,10.47l7.35,0.46l-6.307,5.644c-3.393-6.747-9.811-10.484-17.898-10.484
	c-11.408,0-20.656,9.18-20.656,20.588c0,11.411,9.248,20.624,20.656,20.624s20.656-9.137,20.656-20.545
	c0-1.626-0.457-3.412-0.811-5.1l13.316-13.635l-6.494-0.319L849.629,286.128z M836.33,320.639h-33.598
	c-1.148-2.248-1.793-5.098-1.793-7.951c0-0.74,0.049-1.044,0.133-2.169h36.918c0.084,1.124,0.131,1.429,0.131,2.169
	C838.121,315.54,837.479,318.392,836.33,320.639z"/>
<circle fill="#FFFFFF" cx="769.811" cy="380.202" r="3.149"/>
<circle fill="#FFFFFF" cx="782.783" cy="380.293" r="3.149"/>
<path fill="#FFF200" d="M806.629,351.207l-13.242,10.47l7.35,0.46l-6.307,5.644c-3.393-6.747-9.811-10.484-17.898-10.484
	c-11.408,0-20.656,9.18-20.656,20.588c0,11.411,9.248,20.624,20.656,20.624s20.656-9.137,20.656-20.545
	c0-1.626-0.457-3.412-0.811-5.1l13.316-13.635l-6.494-0.319L806.629,351.207z M793.33,385.718h-33.598
	c-1.148-2.248-1.793-5.098-1.793-7.951c0-0.74,0.049-1.044,0.133-2.169h36.918c0.084,1.124,0.131,1.429,0.131,2.169
	C795.121,380.619,794.479,383.471,793.33,385.718z"/>
<circle fill="#FFFFFF" cx="836.875" cy="380.202" r="3.149"/>
<circle fill="#FFFFFF" cx="849.848" cy="380.294" r="3.149"/>
<path fill="#FFF200" d="M873.693,351.208l-13.242,10.47l7.35,0.46l-6.307,5.644c-3.393-6.747-9.811-10.484-17.898-10.484
	c-11.408,0-20.656,9.18-20.656,20.588c0,11.41,9.248,20.623,20.656,20.623s20.656-9.137,20.656-20.545
	c0-1.626-0.457-3.412-0.811-5.1l13.316-13.635l-6.494-0.319L873.693,351.208z M860.395,385.718h-33.598
	c-1.148-2.247-1.793-5.098-1.793-7.95c0-0.74,0.049-1.044,0.133-2.169h36.918c0.084,1.124,0.131,1.429,0.131,2.169
	C862.186,380.62,861.543,383.471,860.395,385.718z"/>
<circle fill="#FFFFFF" cx="908.219" cy="385.546" r="3.149"/>
<circle fill="#FFFFFF" cx="921.191" cy="385.638" r="3.149"/>
<path fill="#FFEC00" d="M945.037,356.552l-13.242,10.47l7.35,0.46l-6.307,5.644c-3.393-6.747-9.811-10.484-17.898-10.484
	c-11.408,0-20.656,9.18-20.656,20.588c0,11.41,9.248,20.623,20.656,20.623s20.656-9.137,20.656-20.544
	c0-1.626-0.457-3.412-0.811-5.1l13.316-13.635l-6.494-0.319L945.037,356.552z M931.738,391.062h-33.598
	c-1.148-2.246-1.793-5.098-1.793-7.95c0-0.74,0.049-1.044,0.133-2.169h36.918c0.084,1.124,0.131,1.429,0.131,2.169
	C933.529,385.964,932.887,388.816,931.738,391.062z"/>
<circle fill="#FFFFFF" cx="887.544" cy="326.816" r="3.149"/>
<circle fill="#FFFFFF" cx="900.517" cy="326.907" r="3.149"/>
<path fill="#FFEC00" d="M924.362,297.821l-13.242,10.47l7.35,0.46l-6.307,5.644c-3.393-6.747-9.811-10.484-17.898-10.484
	c-11.408,0-20.656,9.18-20.656,20.588c0,11.41,9.248,20.623,20.656,20.623s20.656-9.137,20.656-20.544
	c0-1.626-0.457-3.412-0.811-5.1l13.316-13.635l-6.494-0.319L924.362,297.821z M911.063,332.332h-33.598
	c-1.148-2.246-1.793-5.098-1.793-7.95c0-0.74,0.049-1.044,0.133-2.169h36.918c0.084,1.124,0.131,1.429,0.131,2.169
	C912.854,327.234,912.212,330.085,911.063,332.332z"/>
<circle fill="#FFFFFF" cx="430.876" cy="62.568" r="3.149"/>
<circle fill="#FFFFFF" cx="443.848" cy="62.66" r="3.149"/>
<path fill="#00AEEF" d="M467.695,33.573l-13.242,10.47l7.349,0.46l-6.308,5.644c-3.391-6.747-9.811-10.484-17.898-10.484
	c-11.408,0-20.656,9.18-20.656,20.588c0,11.411,9.249,20.624,20.656,20.624c11.409,0,20.657-9.137,20.657-20.545
	c0-1.626-0.457-3.412-0.811-5.1l13.316-13.635l-6.494-0.319L467.695,33.573z M454.396,68.084h-33.599
	c-1.147-2.248-1.792-5.098-1.792-7.951c0-0.74,0.049-1.044,0.132-2.169h36.917c0.084,1.124,0.131,1.429,0.131,2.169
	C456.187,62.985,455.543,65.837,454.396,68.084z"/>
<circle fill="#FFFFFF" cx="142.079" cy="451.482" r="3.149"/>
<circle fill="#FFFFFF" cx="155.051" cy="451.574" r="3.149"/>
<path fill="#FFFFFF" d="M178.897,422.488l-13.242,10.47l7.349,0.46l-6.308,5.644c-3.391-6.747-9.811-10.484-17.898-10.484
	c-11.408,0-20.656,9.18-20.656,20.588c0,11.41,9.249,20.624,20.656,20.624c11.409,0,20.657-9.137,20.657-20.546
	c0-1.626-0.457-3.412-0.811-5.1l13.316-13.635l-6.494-0.319L178.897,422.488z M165.598,457H132
	c-1.147-2.248-1.792-5.099-1.792-7.951c0-0.74,0.049-1.044,0.132-2.169h36.917c0.084,1.124,0.131,1.429,0.131,2.169
	C167.389,451.9,166.746,454.751,165.598,457z"/>
<circle fill="#FFFFFF" cx="205.571" cy="451.482" r="3.149"/>
<circle fill="#FFFFFF" cx="218.543" cy="451.574" r="3.149"/>
<path fill="#FFFFFF" d="M242.39,422.488l-13.242,10.47l7.349,0.46l-6.308,5.644c-3.391-6.747-9.811-10.484-17.898-10.484
	c-11.408,0-20.656,9.18-20.656,20.588c0,11.41,9.249,20.624,20.656,20.624c11.409,0,20.657-9.137,20.657-20.546
	c0-1.626-0.457-3.412-0.811-5.1l13.316-13.635l-6.494-0.319L242.39,422.488z M229.09,457h-33.599
	c-1.147-2.248-1.792-5.099-1.792-7.951c0-0.74,0.049-1.044,0.132-2.169h36.917c0.084,1.124,0.131,1.429,0.131,2.169
	C230.881,451.9,230.238,454.751,229.09,457z"/>
<circle fill="#FFFFFF" cx="270.65" cy="451.482" r="3.149"/>
<circle fill="#FFFFFF" cx="283.623" cy="451.574" r="3.149"/>
<path fill="#FFFFFF" d="M307.469,422.488l-13.242,10.47l7.349,0.46l-6.308,5.644c-3.391-6.747-9.811-10.484-17.898-10.484
	c-11.408,0-20.656,9.18-20.656,20.588c0,11.41,9.249,20.624,20.656,20.624c11.409,0,20.657-9.137,20.657-20.546
	c0-1.626-0.457-3.412-0.811-5.1l13.316-13.635l-6.494-0.319L307.469,422.488z M294.17,457h-33.599
	c-1.147-2.248-1.792-5.099-1.792-7.951c0-0.74,0.049-1.044,0.132-2.169h36.917c0.084,1.124,0.131,1.429,0.131,2.169
	C295.961,451.9,295.318,454.751,294.17,457z"/>
<path fill="#FFFFFF" d="M553.05,508.932c0-34.087,25.779-62.79,56.392-62.79c30.609,0,56.386,28.703,56.386,62.79v50.234
	c9.672-14.354,16.113-32.296,16.113-50.234c0-44.851-32.225-80.731-72.499-80.731c-40.28,0-72.503,35.881-72.503,80.731
	c0,19.733,6.446,37.675,16.111,50.234V508.932z"/>
<path fill="#FFFFFF" d="M802.774,643.486c-9.667,0-17.722,3.588-24.166,8.969l0,0c0-25.117-17.724-44.852-40.279-44.852
	c-9.668,0-19.33,3.588-27.387,10.766c-6.444-17.941-20.948-28.705-37.06-28.705c-9.663,0-17.719,3.589-24.167,8.972v-89.704
	c0-25.116-17.719-44.851-40.274-44.851s-40.28,19.734-40.28,44.851v159.671c-32.223-32.294-67.666-57.411-90.222-32.294
	c-32.223,35.881,35.443,105.848,87.001,211.696c37.057,73.559,88.612,100.468,140.166,100.468
	c75.723,0,136.945-68.174,136.945-152.493V688.335C843.052,663.221,825.33,643.486,802.774,643.486z M826.94,727.808v68.172
	c0,69.97-54.775,134.556-120.834,134.556c-61.223,0-96.668-37.676-125.669-89.702c-61.222-118.409-106.332-172.229-90.223-191.964
	c17.723-19.735,61.225,23.32,95.057,62.79V508.932c0-14.353,11.277-26.909,24.167-26.909c12.891,0,24.169,12.557,24.169,26.909
	v188.374h16.108v-62.79c0-14.354,11.28-26.914,24.167-26.914c12.891,0,24.169,12.561,24.169,26.914v44.851h16.111v-26.914
	c0-14.353,11.277-26.909,24.166-26.909c12.893,0,24.168,12.557,24.168,26.909v44.853h16.111v-8.972
	c0-14.351,11.28-26.909,24.166-26.909c12.894,0,24.169,12.559,24.169,26.909v39.475H826.94z"/>
</svg>
