<?xml version="1.0" encoding="utf-8"?>
<!-- Generator: Adobe Illustrator 15.0.0, SVG Export Plug-In  -->
<!DOCTYPE svg PUBLIC "-//W3C//DTD SVG 1.1//EN" "http://www.w3.org/Graphics/SVG/1.1/DTD/svg11.dtd" [
	<!ENTITY ns_flows "http://ns.adobe.com/Flows/1.0/">
]>
<svg version="1.1"
	 xmlns="http://www.w3.org/2000/svg" xmlns:xlink="http://www.w3.org/1999/xlink" xmlns:a="http://ns.adobe.com/AdobeSVGViewerExtensions/3.0/"
	 x="0px" y="0px" width="1000px" height="1000px" viewBox="6.881 0 1000 1000"
	 overflow="visible" enable-background="new 6.881 0 1000 1000" xml:space="preserve">
<defs>
</defs>
<rect x="6.881" display="none" fill="#976DD0" width="1000" height="1000"/>
<path fill="#FFFFFF" d="M580.998,867.388c-5.963-4.017-6.085-4.626-6.085-27.631V817.97l4.138-4.136l4.139-4.14h70.474
	c54.527,0,70.96,0.364,72.42,1.58c5.354,4.385,5.843,6.573,5.843,29.213v21.787l-3.53,3.53l-3.529,3.53h-70.473
	C591.1,869.335,583.677,869.091,580.998,867.388z"/>
<path fill="#FFFFFF" d="M595.239,791.801c-0.487-0.364-0.853-4.503-0.853-9.005c0-7.182-0.364-8.277-2.434-9.008
	c-4.018-1.216-16.918-13.876-22.274-21.788c-6.329-9.37-11.929-22.638-15.58-37.122l-2.92-11.442l-13.998-11.685
	c-7.667-6.451-21.665-18.014-31.037-25.56c-19.231-15.58-21.422-17.891-25.683-25.926c-3.529-6.937-4.016-20.204-0.972-27.508
	c4.624-11.317,15.214-17.282,30.549-17.282c13.877,0,22.64,3.651,38.583,16.066c33.351,26.168,57.815,37.976,73.517,35.663
	c4.382-0.609,6.815-1.947,10.712-5.965c10.468-10.347,11.806-27.629,3.529-45.155l-3.043-6.331v-40.409
	c0-35.176,0.244-40.41,1.826-41.141c1.094-0.365,4.868,1.34,8.885,3.896c7.911,5.233,74.733,71.567,79.845,79.237
	c6.938,10.588,10.225,33.351,6.817,47.349c-0.729,2.675-1.705,9.491-2.313,15.213c-0.729,5.72-2.312,17.771-3.651,26.777
	c-5.112,33.352-9.25,76.194-10.223,102.851l-0.244,8.52l-59.155,0.364C622.625,792.533,595.604,792.288,595.239,791.801z"/>
<g>
	<rect y="816.595" fill="none" width="577.904" height="74.268"/>
	<path fill="#FFFFFF" d="M143.335,822.056h-13.08v-2.76h29.458v2.76h-13.079v37.499h-3.3V822.056z"/>
	<path fill="#FFFFFF" d="M158.335,851.994c0-5.1,3.06-7.799,8.82-8.459l8.7-0.96v-3.84c0-4.979-2.28-6.42-7.56-6.42
		c-2.939,0-5.34,0.479-7.439,1.08v-2.28c2.52-1.02,5.28-1.56,8.58-1.56c6.12,0,9.54,2.52,9.54,8.46v21.539h-2.64l-0.24-2.641h-0.18
		c-1.5,1.561-4.2,3.12-8.52,3.12C162.055,860.034,158.335,857.095,158.335,851.994z M175.855,854.935v-10.02l-7.86,0.899
		c-4.44,0.48-6.479,2.28-6.479,6.061c0,3.659,2.58,5.699,6.66,5.699C171.475,857.574,174.295,856.314,175.855,854.935z"/>
	<path fill="#FFFFFF" d="M187.495,816.596h3.12v42.959h-3.12V816.596z M191.455,844.255l12.839-14.159h3.48l-12.839,13.979
		l13.679,15.479h-3.6L191.455,844.255z"/>
	<path fill="#FFFFFF" d="M212.694,845.155v-0.66c0-10.26,5.88-14.939,12.779-14.939c7.98,0,11.64,4.92,11.64,13.739v1.8h-21.239
		c0,8.52,3.72,12.18,11.16,12.18c3.96,0,6.78-0.9,9.12-2.1v2.46c-1.8,1.08-5.04,2.399-9.54,2.399
		C217.374,860.034,212.694,854.635,212.694,845.155z M215.934,842.575h17.939c0-6.96-2.76-10.439-8.52-10.439
		C220.734,832.136,216.414,835.075,215.934,842.575z"/>
	<path fill="#FFFFFF" d="M259.613,830.096h3v2.46h0.18c2.16-1.561,5.28-3,9.48-3c6.66,0,11.939,3.479,11.939,14.759v0.601
		c0,10.56-5.16,15.119-13.439,15.119c-3.54,0-6.24-1.02-8.04-2.1v10.619h-3.12V830.096z M280.973,845.335v-0.9
		c0-9.419-3.6-12.119-9.42-12.119c-3.84,0-7.02,1.32-8.819,2.58v20.339c1.68,1.14,4.5,2.22,7.859,2.22
		C277.013,857.454,280.973,853.975,280.973,845.335z"/>
	<path fill="#FFFFFF" d="M291.113,820.136h3.3v3.66h-3.3V820.136z M291.173,830.096h3.18v29.459h-3.18V830.096z"/>
	<path fill="#FFFFFF" d="M301.133,845.215v-0.72c0-10.439,5.88-14.939,13.439-14.939c3.78,0,6.06,0.66,8.1,1.92v2.76
		c-2.46-1.26-4.5-1.92-8.34-1.92c-5.76,0-9.959,3.66-9.959,11.699v1.141c0,7.919,3.3,12.119,10.38,12.119
		c4.14,0,6.72-1.26,8.339-2.22v2.64c-1.92,1.14-4.38,2.34-8.7,2.34C305.812,860.034,301.133,854.694,301.133,845.215z"/>
	<path fill="#FFFFFF" d="M331.611,853.375v-20.699h-4.32v-2.58h4.32v-6.96h3.18v6.96h8.04v2.58h-8.04v20.279
		c0,2.939,1.02,4.26,4.68,4.26c1.32,0,2.76-0.24,3.96-0.54v2.1c-1.02,0.54-2.46,1.02-4.74,1.02
		C334.191,859.794,331.611,857.874,331.611,853.375z"/>
	<path fill="#FFFFFF" d="M349.671,851.814v-21.719h3.12v21.239c0,4.38,1.92,5.999,6.6,5.999c3.3,0,6.54-1.079,9.419-2.819v-24.419
		h3.18v29.459h-2.76l-0.3-2.76h-0.18c-3.12,1.979-6.72,3.3-10.199,3.3C352.911,860.095,349.671,857.454,349.671,851.814z"/>
	<path fill="#FFFFFF" d="M380.57,830.035h3.06v3.48h0.18c1.8-1.92,5.1-3.84,8.76-3.84c0.6,0,1.32,0.06,1.74,0.18v2.88
		c-0.66-0.12-1.5-0.18-1.979-0.18c-3.36,0-6.48,1.5-8.58,3.3v23.699h-3.18V830.035z"/>
	<path fill="#FFFFFF" d="M398.33,845.155v-0.66c0-10.26,5.88-14.939,12.779-14.939c7.98,0,11.64,4.92,11.64,13.739v1.8H401.51
		c0,8.52,3.72,12.18,11.16,12.18c3.96,0,6.78-0.9,9.12-2.1v2.46c-1.8,1.08-5.04,2.399-9.54,2.399
		C403.01,860.034,398.33,854.635,398.33,845.155z M401.57,842.575h17.939c0-6.96-2.76-10.439-8.52-10.439
		C406.37,832.136,402.05,835.075,401.57,842.575z"/>
	<path fill="#FFFFFF" d="M427.43,857.874v-2.579c2.34,1.079,4.74,1.979,8.94,1.979c5.28,0,7.26-2.22,7.26-5.28
		c0-3.419-1.5-4.619-5.76-5.819l-3.12-0.96c-4.38-1.2-7.02-3.12-7.02-7.92c0-4.56,3.18-7.739,9.6-7.739
		c3.78,0,6.24,0.899,7.919,1.74v2.579c-1.8-0.84-4.68-1.56-7.74-1.56c-4.5,0-6.78,1.68-6.78,4.74c0,3.06,1.38,4.319,5.04,5.399
		l3.24,0.9c5.4,1.499,7.8,3.239,7.8,8.399c0,4.979-3.36,8.22-10.08,8.22C432.77,859.975,429.59,859.074,427.43,857.874z"/>
</g>
<circle fill="#FFFFFF" cx="485.827" cy="465.274" r="8.348"/>
<circle fill="#FFFFFF" cx="520.213" cy="465.517" r="8.348"/>
<path fill="#FFFFFF" d="M583.423,388.417l-35.102,27.754l19.481,1.218l-16.72,14.959c-8.989-17.885-26.005-27.791-47.443-27.791
	c-30.24,0-54.754,24.333-54.754,54.574c0,30.244,24.515,54.668,54.754,54.668c30.242,0,54.754-24.219,54.754-54.461
	c0-4.311-1.21-9.045-2.149-13.518l35.297-36.143l-17.212-0.845L583.423,388.417z M548.171,479.899h-89.06
	c-3.042-5.961-4.75-13.517-4.75-21.079c0-1.962,0.129-2.767,0.351-5.748h97.857c0.223,2.979,0.349,3.786,0.349,5.748
	C552.919,466.381,551.213,473.938,548.171,479.899z"/>
<path fill="#FFFFFF" d="M536.054,318.188l-19.886-20.551c7.476-2.057,12.424-4.213,12.424-4.213l-16.729-20.745
	c5.604-1.99,9.267-3.991,9.267-3.991l-14.084-21.901c4.012-2.056,6.622-4.073,6.622-4.073l-22.39-43.391l-22.385,43.391
	c0,0,2.607,2.017,6.621,4.073l-14.083,21.901c0,0,3.663,2.001,9.262,3.988l-16.725,20.748c0,0,4.948,2.157,12.423,4.213
	l-19.885,20.551c0,0,15.521,5.649,34.327,7.381v11.745h20.896V325.57C520.53,323.838,536.054,318.188,536.054,318.188z"/>
<path fill="#FFFFFF" stroke="#976DD0" stroke-miterlimit="9" d="M530.723,568.025l-36.347-25.217
	c13.664-2.523,22.708-5.17,22.708-5.17l-30.572-25.454c10.238-2.44,16.934-4.896,16.934-4.896L477.7,480.415
	c7.337-2.522,12.104-4.997,12.104-4.997l-40.921-53.242l-40.916,53.242c0,0,4.766,2.475,12.101,4.997l-25.739,26.874
	c0,0,6.694,2.456,16.929,4.894l-30.57,25.457c0,0,9.044,2.646,22.706,5.17l-36.344,25.217c0,0,28.369,6.931,62.741,9.056v14.412
	h38.192v-14.412C502.351,574.956,530.723,568.025,530.723,568.025z"/>
<path fill="#FFFFFF" stroke="#976DD0" stroke-miterlimit="9" d="M508.433,333.46l-36.347-25.217
	c13.664-2.523,22.708-5.17,22.708-5.17l-30.573-25.454c10.238-2.44,16.935-4.896,16.935-4.896l-25.745-26.874
	c7.337-2.522,12.103-4.997,12.103-4.997l-40.92-53.242l-40.916,53.242c0,0,4.767,2.475,12.101,4.997l-25.739,26.874
	c0,0,6.693,2.456,16.929,4.894l-30.571,25.457c0,0,9.045,2.647,22.706,5.17l-36.344,25.217c0,0,28.37,6.931,62.741,9.056v14.412
	h38.192v-14.412C480.061,340.392,508.433,333.46,508.433,333.46z"/>
<path fill="#FFFFFF" d="M590.271,708.439H359.99c-23.343,0-42.333-18.99-42.333-42.333V110.728c0-23.342,18.99-42.333,42.333-42.333
	h230.282c23.342,0,42.333,18.99,42.333,42.333v555.379C632.604,689.449,613.613,708.439,590.271,708.439z M359.99,78.552
	c-17.742,0-32.169,14.433-32.169,32.169V666.1c0,17.742,14.433,32.17,32.169,32.17h230.282c17.742,0,32.169-14.434,32.169-32.17
	V110.728c0-17.742-14.433-32.169-32.169-32.169H359.99V78.552z"/>
<path fill="#FFFFFF" d="M613.134,628.068h-276V148.881h276V628.068z M342.215,622.994h265.836V153.969H342.215V622.994z"/>
<path fill="#FFFFFF" d="M498.835,117.384h-47.409c-3.264,0-5.927-2.656-5.927-5.927v-1.356c0-3.265,2.656-5.927,5.927-5.927h47.409
	c3.264,0,5.927,2.656,5.927,5.927v1.356C504.762,114.728,502.105,117.384,498.835,117.384z M451.426,109.255
	c-0.467,0-0.845,0.378-0.845,0.845v1.356c0,0.467,0.378,0.845,0.845,0.845h47.409c0.467,0,0.845-0.377,0.845-0.845v-1.356
	c0-0.467-0.377-0.845-0.845-0.845H451.426z"/>
<path fill="#FFFFFF" d="M426.593,119.08c-4.57,0-8.295-3.725-8.295-8.295c0-4.576,3.726-8.302,8.295-8.302
	c4.576,0,8.301,3.726,8.301,8.302C434.894,115.355,431.169,119.08,426.593,119.08z M426.593,107.566
	c-1.773,0-3.213,1.44-3.213,3.219c0,1.773,1.44,3.213,3.213,3.213c1.779,0,3.219-1.44,3.219-3.213
	C429.812,109.006,428.372,107.566,426.593,107.566z"/>
<path fill="#FFFFFF" d="M475.133,688.745c-14.471,0-26.248-11.771-26.248-26.249c0-14.477,11.77-26.248,26.248-26.248
	c14.478,0,26.249,11.771,26.249,26.248C501.382,676.975,489.605,688.745,475.133,688.745z M475.133,641.331
	c-11.667,0-21.166,9.498-21.166,21.165c0,11.669,9.499,21.167,21.166,21.167c11.668,0,21.167-9.498,21.167-21.167
	C496.3,650.829,486.802,641.331,475.133,641.331z"/>
<rect x="315.187" y="146.922" fill="#FFFFFF" width="8.455" height="29.205"/>
<rect x="315.187" y="201.435" fill="#FFFFFF" width="8.455" height="51.306"/>
<rect x="315.187" y="258.155" fill="#FFFFFF" width="8.455" height="53.034"/>
<rect x="626.684" y="200.212" fill="#FFFFFF" width="8.487" height="59.262"/>
</svg>
